<svg id="nav_luggage" xmlns="http://www.w3.org/2000/svg" xmlns:xlink="http://www.w3.org/1999/xlink" width="32" height="32" viewBox="0 0 32 32">
  <defs>
    <clipPath id="clip-path">
      <rect id="Rectangle_20941" data-name="Rectangle 20941" width="32" height="32" fill="none"/>
    </clipPath>
  </defs>
  <g id="Mask_Group_153" data-name="Mask Group 153" clip-path="url(#clip-path)">
    <g id="Group_1454" data-name="Group 1454" transform="translate(2.489 2.133)">
      <rect id="Rectangle_20942" data-name="Rectangle 20942" width="7.352" height="17.997" transform="translate(0.978 7.69)" fill="#ebe7f2"/>
      <path id="Path_2410" data-name="Path 2410" d="M4290.818,853.3a.626.626,0,0,1-.625-.625V840.292a.625.625,0,0,1,1.25,0v12.382A.626.626,0,0,1,4290.818,853.3Z" transform="translate(-4282.386 -829.567)" fill="#f87864"/>
      <path id="Path_2411" data-name="Path 2411" d="M4265.438,858.46a.626.626,0,0,1-.625-.625V847.4a.625.625,0,1,1,1.25,0v10.43A.626.626,0,0,1,4265.438,858.46Z" transform="translate(-4260.488 -835.703)" fill="#f87864"/>
      <path id="Path_2412" data-name="Path 2412" d="M4253.022,775.96,4250.158,777v-1.818a2.585,2.585,0,0,0-2.577-2.577h-2.71a.081.081,0,0,1-.081-.081v-4.932a.081.081,0,0,1,.081-.081h.677a.706.706,0,0,0,.706-.706v-.048a.706.706,0,0,0-.707-.706H4237.9a.706.706,0,0,0-.707.706v.048a.706.706,0,0,0,.706.706h.677a.081.081,0,0,1,.081.081v4.932a.081.081,0,0,1-.081.081h-2.709a2.585,2.585,0,0,0-2.577,2.577v15.127a2.586,2.586,0,0,0,2.365,2.568.08.08,0,0,1,.074.079v.01a.706.706,0,0,0,.706.706h1.791a.706.706,0,0,0,.706-.706.081.081,0,0,1,.081-.081h5.42a.081.081,0,0,1,.081.081.706.706,0,0,0,.706.706h1.791a.705.705,0,0,0,.706-.706v-.01a.08.08,0,0,1,.074-.079,2.575,2.575,0,0,0,1.681-.824,12.128,12.128,0,0,0,3.4,1.585l.15.036.15-.036c.074-.018,7.417-1.9,7.417-8.811v-6.117Zm-13.111-8.365a.081.081,0,0,1,.081-.081h3.467a.081.081,0,0,1,.081.081v4.932a.081.081,0,0,1-.081.081h-3.467a.081.081,0,0,1-.081-.081Zm7.67,24.042h-11.63a1.407,1.407,0,0,1-1.408-1.408V775.265a1.407,1.407,0,0,1,1.408-1.407H4247.5a1.407,1.407,0,0,1,1.407,1.407v2.192l-3.453,1.256v6.117a8.224,8.224,0,0,0,3.014,6.465A1.319,1.319,0,0,1,4247.581,791.637Zm11.747-6.808c0,5.473-5.3,7.256-6.3,7.544-.965-.286-6.309-2.118-6.309-7.544V779.6l6.306-2.293,6.306,2.293Z" transform="translate(-4233.293 -766.054)" fill="#403996"/>
      <path id="Path_2413" data-name="Path 2413" d="M4353.186,873.475a.954.954,0,0,1-.953-.952v-3.276a.954.954,0,0,1,.953-.952h.276v-1.1a2.181,2.181,0,0,1,4.361,0v1.1h.276a.954.954,0,0,1,.953.952v3.276a.954.954,0,0,1-.953.952Zm4.78-1.086V869.38h-4.647v3.009Zm-1.229-4.095v-1.1a1.095,1.095,0,0,0-2.19,0v1.1Z" transform="translate(-4335.914 -851.44)" fill="#f87864"/>
    </g>
  </g>
</svg>
