<svg id="nav_bankaccount" xmlns="http://www.w3.org/2000/svg" xmlns:xlink="http://www.w3.org/1999/xlink" width="32" height="32" viewBox="0 0 32 32">
  <defs>
    <clipPath id="clip-path">
      <rect id="Rectangle_20943" data-name="Rectangle 20943" width="32" height="32" transform="translate(1242.397 1604.397)" fill="#fff" stroke="#707070" stroke-width="1"/>
    </clipPath>
  </defs>
  <g id="Mask_Group_154" data-name="Mask Group 154" transform="translate(-1242.397 -1604.397)" clip-path="url(#clip-path)">
    <g id="Layer_1-2" transform="translate(1243.007 1605.87)">
      <g id="Group_1456" data-name="Group 1456" transform="translate(0)">
        <path id="Path_2414" data-name="Path 2414" d="M9.86,74.11H37.881l-1.463,2.844H10.753Z" transform="translate(-8.446 -63.451)" fill="#ebe7f2"/>
        <path id="Path_2415" data-name="Path 2415" d="M15.26,0h.268c.164.088.337.164.492.266q4.093,2.69,8.182,5.388,3.005,1.981,6.012,3.958c.542.358.688.758.426,1.266-.549,1.066-1.113,2.123-1.673,3.183a.85.85,0,0,1-.814.479h-.69c.229,3.146.456,6.254.683,9.381.134.006.243.014.351.016.478,0,.956-.007,1.434.006a.782.782,0,0,1,.814.762q.028,1.782,0,3.567a.776.776,0,0,1-.706.762,2.941,2.941,0,0,1-.465.024H1.23c-.078,0-.155,0-.233,0a.868.868,0,0,1-.962-.977q-.009-1.584,0-3.167a.859.859,0,0,1,.985-.977c.531,0,1.061,0,1.62,0,.229-3.141.455-6.249.685-9.4-.18,0-.334-.012-.485,0a1.052,1.052,0,0,1-1.131-.685c-.462-.935-.965-1.85-1.451-2.773-.384-.729-.292-1.067.4-1.526q5.8-3.823,11.6-7.643C13.255,1.266,14.261.639,15.26,0ZM2,10.727c.318.607.633,1.156.9,1.73a.584.584,0,0,0,.636.378q11.868-.015,23.735-.007a1.591,1.591,0,0,0,.3-.007.281.281,0,0,0,.181-.109c.351-.653.692-1.31,1.041-1.976-.1-.076-.183-.137-.265-.191q-6.4-4.213-12.794-8.433a.509.509,0,0,0-.667.006Q9.7,5.666,4.323,9.194C3.555,9.7,2.789,10.2,2,10.727Zm-.26,16.592h27.3V25.664H1.736v1.655Zm10.449-3.4c.229-3.135.455-6.242.682-9.36H8.328c.229,3.131.455,6.241.682,9.36Zm5.706-9.366c.229,3.143.455,6.249.68,9.356H21.75c.227-3.127.452-6.232.679-9.356H17.891ZM7.311,23.922c-.229-3.146-.455-6.252-.682-9.369H5.03c-.223,3.121-.446,6.236-.67,9.369H7.311Zm7.281-9.368c-.224,3.141-.447,6.248-.67,9.355h2.951c-.229-3.137-.456-6.244-.682-9.355Zm9.573,0q-.341,4.688-.679,9.36h2.94c-.221-3.135-.44-6.245-.66-9.36h-1.6Z" transform="translate(-0.03)" fill="#403996"/>
        <circle id="Ellipse_215" data-name="Ellipse 215" cx="1.802" cy="1.802" r="1.802" transform="translate(13.559 5.192)" fill="#f87864"/>
      </g>
    </g>
  </g>
</svg>
