<svg width="76" height="75" viewBox="0 0 76 75" fill="none" xmlns="http://www.w3.org/2000/svg">
<mask id="mask0_2502_2955" style="mask-type:alpha" maskUnits="userSpaceOnUse" x="0" y="0" width="76" height="75">
<rect x="0.466797" width="75" height="75" fill="#D9D9D9"/>
</mask>
<g mask="url(#mask0_2502_2955)">
<path fill-rule="evenodd" clip-rule="evenodd" d="M58.8305 59.1836V69.6352C58.8305 71.1133 58.2284 72.4547 57.2566 73.4263C56.2852 74.3979 54.9439 75 53.4656 75H22.4684C20.9902 75 19.6488 74.398 18.6772 73.4262C17.7056 72.4545 17.1035 71.1133 17.1035 69.635V59.1835V41.2245V36.2461V5.36499C17.1035 3.88667 17.7056 2.54546 18.6772 1.57383C19.6488 0.602051 20.99 0 22.4684 0H53.4658C54.9439 0 56.2852 0.602051 57.2568 1.57383C58.2284 2.54546 58.8306 3.88667 58.8306 5.36499L58.8305 59.1836ZM19.3 58.0872V41.2245V36.2461V11.228H56.6339V58.0872H19.3ZM56.6339 9.03135H19.3V5.36484C19.3 4.49692 19.6572 3.70386 20.2343 3.13081C20.8075 2.55366 21.6006 2.19653 22.4684 2.19653H53.4656C54.3376 2.19653 55.1266 2.55366 55.7038 3.13081C56.2768 3.70386 56.6339 4.49692 56.6339 5.36484V9.03135ZM19.3 69.635V60.284H56.6341V69.635C56.6341 70.507 56.277 71.3001 55.7039 71.8731C55.1266 72.4462 54.3378 72.8033 53.4658 72.8033H22.4684C21.6006 72.8033 20.8075 72.4462 20.2343 71.8731C19.6572 71.3001 19.3 70.507 19.3 69.635Z" fill="#403996"/>
<path fill-rule="evenodd" clip-rule="evenodd" d="M40.9296 63.581C40.1741 62.821 39.1233 62.3518 37.969 62.3518C36.8105 62.3518 35.7643 62.821 35.0043 63.581C34.2444 64.3409 33.7752 65.3873 33.7752 66.5458C33.7752 67.7001 34.2444 68.7507 35.0043 69.5064C35.7642 70.2662 36.8105 70.7354 37.969 70.7354C39.1233 70.7354 40.1739 70.2662 40.9296 69.5064C41.6896 68.7507 42.1588 67.7001 42.1588 66.5458C42.1588 65.3873 41.6896 64.3409 40.9296 63.581ZM37.969 64.5483C38.5172 64.5483 39.0155 64.7726 39.3768 65.1338C39.738 65.4952 39.9623 65.9936 39.9623 66.5457C39.9623 67.0938 39.738 67.5921 39.3768 67.9534C39.0155 68.3146 38.5172 68.5389 37.969 68.5389C37.4168 68.5389 36.9185 68.3146 36.5572 67.9534C36.196 67.5921 35.9717 67.0938 35.9717 66.5457C35.9717 65.9934 36.196 65.4952 36.5572 65.1338C36.9186 64.7726 37.4168 64.5483 37.969 64.5483Z" fill="#403996"/>
<path d="M34.6264 6.7144C34.0201 6.7144 33.526 6.22031 33.526 5.61401C33.526 5.00771 34.0201 4.51362 34.6264 4.51362H41.3076C41.9139 4.51362 42.408 5.00771 42.408 5.61401C42.408 6.22031 41.9139 6.7144 41.3076 6.7144H34.6264Z" fill="#403996"/>
<path fill-rule="evenodd" clip-rule="evenodd" d="M19.3 9.03135H56.6339V5.36484C56.6339 4.49692 56.2768 3.70386 55.7038 3.13081C55.1266 2.55366 54.3376 2.19653 53.4656 2.19653H22.4684C21.6006 2.19653 20.8075 2.55366 20.2343 3.13081C19.6572 3.70386 19.3 4.49692 19.3 5.36484V9.03135ZM33.526 5.61401C33.526 6.22031 34.0201 6.7144 34.6264 6.7144H41.3076C41.9139 6.7144 42.408 6.22031 42.408 5.61401C42.408 5.00771 41.9139 4.51362 41.3076 4.51362H34.6264C34.0201 4.51362 33.526 5.00771 33.526 5.61401Z" fill="#EBE7F2"/>
<path fill-rule="evenodd" clip-rule="evenodd" d="M21.1035 42.8573C21.1035 42.2262 21.6109 41.7146 22.2368 41.7146H53.9702C54.5961 41.7146 55.1035 42.2262 55.1035 42.8573C55.1035 43.4884 54.5961 44 53.9702 44H22.2368C21.6109 44 21.1035 43.4884 21.1035 42.8573Z" fill="#F87864"/>
<path d="M38.6465 33.1414V33.1414C38.9595 33.1412 39.213 32.8874 39.2129 32.5745L39.2123 31.4224C39.2121 31.1095 38.9583 30.8559 38.6453 30.8561V30.8561C35.3187 30.8579 32.15 32.1257 29.7263 34.4232V34.4232C29.4977 34.6398 29.4866 35.0003 29.7014 35.2306L30.4782 36.0635C30.6919 36.2927 31.0516 36.3037 31.279 36.0881V36.0881C33.282 34.1891 35.8978 33.143 38.6465 33.1414Z" fill="#F87864"/>
<path d="M39.1792 26.9017V26.2854H39.3123C39.8645 26.2854 40.3122 25.8377 40.3122 25.2854V25C40.3122 24.4477 39.8645 24 39.3122 24H36.7789C36.2266 24 35.7789 24.4477 35.7789 25V25.2854C35.7789 25.8377 36.2266 26.2854 36.7789 26.2854H36.9126V26.9018C29.1897 27.475 23.0423 33.8533 22.757 41.7147L25.0255 41.7146C25.3233 34.7336 31.0508 29.1452 38.0467 29.1452C45.0427 29.1452 50.7702 34.7336 51.0679 41.7146L53.3364 41.7147C53.0512 33.8527 46.9033 27.4741 39.1792 26.9017Z" fill="#F87864"/>
<path d="M29.2646 38.3742C29.4224 38.1344 29.5904 37.8995 29.7671 37.6716C30.0027 37.3678 29.9788 36.9296 29.6925 36.673L29.1162 36.1565C28.7854 35.86 28.2742 35.8885 28.001 36.2389C27.7805 36.5216 27.5713 36.8133 27.3754 37.1115V37.1115C27.2022 37.3751 27.274 37.729 27.5362 37.9043L28.4778 38.5335C28.7389 38.708 29.0921 38.6365 29.2646 38.3742V38.3742Z" fill="#F87864"/>
</g>
</svg>
