<svg id="Layer_1" data-name="Layer 1" xmlns="http://www.w3.org/2000/svg" xmlns:xlink="http://www.w3.org/1999/xlink" viewBox="0 0 363.06 100.09"><defs><style>.cls-1{fill:#14b47b;}.cls-2{fill:#fff;}.cls-3{fill:url(#linear-gradient);}.cls-4{fill:url(#linear-gradient-2);}</style><linearGradient id="linear-gradient" x1="284.51" y1="50.17" x2="342.02" y2="50.17" gradientUnits="userSpaceOnUse"><stop offset="0" stop-color="#14b47b"/><stop offset="0.19" stop-color="#18b37c"/><stop offset="0.37" stop-color="#24af7d"/><stop offset="0.54" stop-color="#37a980"/><stop offset="0.72" stop-color="#53a084"/><stop offset="0.9" stop-color="#759589"/><stop offset="1" stop-color="#8e8d8d"/></linearGradient><linearGradient id="linear-gradient-2" x1="313.11" y1="62.17" x2="313.22" y2="62.17" xlink:href="#linear-gradient"/></defs><rect class="cls-1" x="18.2" y="21.42" width="57.51" height="57.51"/><polygon class="cls-2" points="70.78 44.83 52.59 44.83 46.97 27.52 41.33 44.83 23.14 44.81 37.87 55.53 32.23 72.83 46.97 62.13 61.68 72.83 56.06 55.53 70.78 44.83"/><polygon class="cls-1" points="57.33 59.45 56.06 55.53 46.97 62.13 57.33 59.45"/><rect class="cls-1" x="84.58" y="21.42" width="57.51" height="57.51"/><polygon class="cls-2" points="137.16 44.83 118.97 44.83 113.35 27.52 107.71 44.83 89.52 44.81 104.25 55.53 98.61 72.83 113.35 62.13 128.06 72.83 122.44 55.53 137.16 44.83"/><polygon class="cls-1" points="123.71 59.45 122.44 55.53 113.35 62.13 123.71 59.45"/><rect class="cls-1" x="151.23" y="21.42" width="57.51" height="57.51"/><polygon class="cls-2" points="203.8 44.83 185.61 44.83 179.99 27.52 174.35 44.83 156.16 44.81 170.89 55.53 165.26 72.83 179.99 62.13 194.71 72.83 189.09 55.53 203.8 44.83"/><polygon class="cls-1" points="190.35 59.45 189.09 55.53 179.99 62.13 190.35 59.45"/><rect class="cls-1" x="217.87" y="21.42" width="57.51" height="57.51"/><polygon class="cls-2" points="270.45 44.83 252.25 44.83 246.63 27.52 241 44.83 222.8 44.81 237.54 55.53 231.9 72.83 246.63 62.13 261.35 72.83 255.73 55.53 270.45 44.83"/><polygon class="cls-1" points="256.99 59.45 255.73 55.53 246.63 62.13 256.99 59.45"/><rect class="cls-3" x="284.51" y="21.42" width="57.51" height="57.51"/><polygon class="cls-2" points="323.51 59.37 327.88 72.83 313.22 62.17 323.51 59.37"/><polygon class="cls-2" points="336.98 44.84 322.45 55.39 322.26 55.53 313.19 62.14 313.17 62.13 298.43 72.83 304.07 55.53 289.34 44.82 307.53 44.84 313.17 27.52 318.79 44.84 336.98 44.84"/><polygon class="cls-4" points="313.19 62.14 313.22 62.17 313.11 62.2 313.19 62.14"/></svg>