<svg width="100" height="100" viewBox="0 0 100 100" fill="none" xmlns="http://www.w3.org/2000/svg">
<path d="M7.70117 65.6113L49.7017 79.4376L90.4998 65.6113V86.8238H7.70117V65.6113Z" fill="#E2E2EC"/>
<path d="M75.8352 49.9831L51.7043 39.3694C51.1674 39.131 50.5866 39.0078 49.9992 39.0078C49.4118 39.0078 48.8309 39.131 48.294 39.3694L24.1631 49.9831C23.4135 50.3158 22.7766 50.8589 22.3295 51.5465C21.8825 52.234 21.6445 53.0365 21.6445 53.8566C21.6445 54.6767 21.8825 55.4793 22.3295 56.1668C22.7766 56.8544 23.4135 57.3974 24.1631 57.7302L48.3064 68.3439C48.8393 68.5805 49.416 68.7026 49.9992 68.7022C50.5861 68.7014 51.1666 68.5794 51.7043 68.3439L75.8352 57.7178C76.5856 57.3874 77.2236 56.8459 77.6716 56.1592C78.1195 55.4725 78.358 54.6703 78.358 53.8504C78.358 53.0306 78.1195 52.2284 77.6716 51.5417C77.2236 50.855 76.5856 50.3135 75.8352 49.9831V49.9831ZM74.7603 55.2837L50.6293 65.9098C50.4337 65.992 50.2237 66.0343 50.0115 66.0343C49.7994 66.0343 49.5893 65.992 49.3937 65.9098L25.2875 55.2961C25.0097 55.1693 24.7739 54.9659 24.6076 54.7099C24.4413 54.4539 24.3514 54.1557 24.3484 53.8504C24.3507 53.5466 24.4405 53.2498 24.607 52.9956C24.7736 52.7414 25.0098 52.5406 25.2875 52.4172L49.4184 41.8035C49.6131 41.7177 49.8235 41.6734 50.0362 41.6734C50.249 41.6734 50.4593 41.7177 50.654 41.8035L74.7108 52.4172C74.9878 52.5406 75.2231 52.7417 75.3883 52.9961C75.5534 53.2504 75.6412 53.5472 75.6412 53.8504C75.6412 54.1537 75.5534 54.4505 75.3883 54.7048C75.2231 54.9592 74.9878 55.1603 74.7108 55.2837H74.7603Z" fill="#F56A54"/>
<path d="M52.9649 71.208C52.033 71.6127 51.0279 71.8216 50.0119 71.8216C48.9959 71.8216 47.9907 71.6127 47.0588 71.208L29.3653 63.4238V68.1191C29.3622 69.5059 29.7151 70.8702 30.39 72.0817C31.065 73.2931 32.0395 74.3111 33.2203 75.0384C39.0399 78.5721 44.5382 80.2896 49.9995 80.2896C55.4608 80.2896 60.9468 78.5721 66.7787 75.0384C67.9596 74.3111 68.9341 73.2931 69.609 72.0817C70.284 70.8702 70.6368 69.5059 70.6338 68.1191V63.4238L52.9649 71.208ZM67.9773 68.1191C67.9808 69.0467 67.7464 69.9597 67.2965 70.7709C66.8465 71.5821 66.1961 72.2644 65.4073 72.7525C54.5835 79.3258 45.3908 79.3135 34.5918 72.7525C33.8029 72.2644 33.1525 71.5821 32.7025 70.7709C32.2526 69.9597 32.0182 69.0467 32.0218 68.1191V67.5013L45.9839 73.6792C47.2525 74.2327 48.6216 74.5183 50.0057 74.5183C51.3898 74.5183 52.7589 74.2327 54.0275 73.6792L67.9773 67.5013V68.1191Z" fill="#F56A54"/>
<path d="M84.7446 26.2339H67.9777V17.1894C67.9777 15.4941 67.3051 13.868 66.1075 12.668C64.9099 11.4681 63.2851 10.7923 61.5898 10.7891H38.4102C36.7149 10.7923 35.0901 11.4681 33.8925 12.668C32.6949 13.868 32.0222 15.4941 32.0222 17.1894V26.2339H15.2554C12.5365 26.2371 9.92987 27.3187 8.00733 29.2412C6.08478 31.1638 5.00327 33.7703 5 36.4892V78.9686C5.00327 81.6864 6.08518 84.2917 8.00808 86.2123C9.93098 88.1329 12.5376 89.2116 15.2554 89.2116H84.7446C87.4624 89.2116 90.069 88.1329 91.9919 86.2123C93.9148 84.2917 94.9967 81.6864 95 78.9686V36.4892C94.9967 33.7703 93.9152 31.1638 91.9926 29.2412C90.0701 27.3187 87.4635 26.2371 84.7446 26.2339ZM37.0881 15.855H62.9119V26.2339H37.0881V15.855ZM89.9464 78.9686C89.9432 80.3461 89.3937 81.666 88.4185 82.6389C87.4433 83.6117 86.1221 84.1581 84.7446 84.1581H15.2554C13.8779 84.1581 12.5567 83.6117 11.5815 82.6389C10.6063 81.666 10.0568 80.3461 10.0535 78.9686V36.4892C10.0568 35.1118 10.6063 33.7918 11.5815 32.819C12.5567 31.8461 13.8779 31.2998 15.2554 31.2998H84.7446C86.1221 31.2998 87.4433 31.8461 88.4185 32.819C89.3937 33.7918 89.9432 35.1118 89.9464 36.4892V78.9686Z" fill="#403996"/>
</svg>
