<svg width="36" height="36" viewBox="0 0 36 36" fill="none" xmlns="http://www.w3.org/2000/svg">
<rect x="1.41406" y="2.32129" width="4.63534" height="8.36436" fill="#E2E2EC"/>
<rect x="30.875" y="23.7314" width="4.63534" height="8.36436" fill="#E2E2EC"/>
<path fill-rule="evenodd" clip-rule="evenodd" d="M28.0708 9.93917C27.7775 10.5822 27.2694 11.0969 26.6382 11.3905V11.3908C26.0479 11.6697 25.3828 11.7366 24.7508 11.5804L30.4569 16.2521C30.5209 16.3046 30.5734 16.3702 30.6109 16.4449C30.6485 16.5195 30.6702 16.6014 30.6748 16.6852C30.6793 16.769 30.6665 16.8528 30.6372 16.9312C30.608 17.0096 30.5629 17.0808 30.5049 17.1402L28.7549 18.9312C28.655 19.0335 28.5222 19.0952 28.3811 19.1048C28.2401 19.1144 28.1004 19.0713 27.9881 18.9835L27.7591 18.8044V24.2556H30.0924V23.6586C30.0924 23.5003 30.1539 23.3484 30.2633 23.2365C30.3727 23.1245 30.5211 23.0616 30.6758 23.0616H35.3424C35.4972 23.0616 35.6455 23.1245 35.7549 23.2365C35.8643 23.3484 35.9258 23.5003 35.9258 23.6586V32.0169C35.9258 32.1752 35.8643 32.3271 35.7549 32.439C35.6455 32.551 35.4972 32.6139 35.3424 32.6139H30.6758C30.5211 32.6139 30.3727 32.551 30.2633 32.439C30.1539 32.3271 30.0924 32.1752 30.0924 32.0169V31.5956L17.4064 34.9826C17.2612 35.0214 17.107 35.0014 16.9758 34.9268L1.22583 25.9715C1.1349 25.9198 1.05912 25.8442 1.00637 25.7524C0.953608 25.6607 0.925786 25.5561 0.925781 25.4497C0.925785 24.9735 1.04566 24.5053 1.27384 24.0903C1.50203 23.6753 1.83083 23.3275 2.22855 23.0804C2.62626 22.8333 3.07948 22.6952 3.5445 22.6794C4.00953 22.6637 4.47067 22.7708 4.88348 22.9905L8.78058 25.0646C8.86587 24.8764 8.97036 24.698 9.0923 24.5324V18.8044L8.86327 18.9835C8.75097 19.0713 8.61132 19.1144 8.47028 19.1048C8.32924 19.0952 8.19641 19.0335 8.09648 18.9312L6.34648 17.1402C6.28851 17.0808 6.24343 17.0096 6.21417 16.9312C6.18491 16.8528 6.17213 16.769 6.17666 16.6852C6.1812 16.6014 6.20294 16.5195 6.24048 16.4449C6.27802 16.3702 6.33052 16.3046 6.39453 16.2521L14.6594 9.48537L10.4195 10.7251C10.3674 10.7404 10.3134 10.7481 10.2591 10.7481H6.75911V11.3451C6.75911 11.5035 6.69766 11.6553 6.58826 11.7673C6.47886 11.8793 6.33049 11.9422 6.17578 11.9422H1.50911C1.3544 11.9422 1.20603 11.8793 1.09664 11.7673C0.987239 11.6553 0.925781 11.5035 0.925781 11.3451V2.98691C0.925781 2.82857 0.987239 2.67672 1.09664 2.56476C1.20603 2.45279 1.3544 2.38989 1.50911 2.38989H6.17578C6.33049 2.38989 6.47886 2.45279 6.58826 2.56476C6.69766 2.67672 6.75911 2.82857 6.75911 2.98691V3.40818L19.4455 0.0211535C19.5906 -0.0174099 19.7446 0.00257498 19.8757 0.0769746L35.6257 9.03223C35.7167 9.08393 35.7924 9.15958 35.8452 9.25134C35.898 9.3431 35.9258 9.44763 35.9258 9.5541C35.9258 10.0303 35.8059 10.4985 35.5777 10.9134C35.3495 11.3284 35.0207 11.6763 34.623 11.9234C34.2253 12.1705 33.7721 12.3086 33.3071 12.3244C32.842 12.3401 32.3809 12.233 31.9681 12.0133L28.0708 9.93917ZM2.09245 10.7481H5.59245V3.58393H2.09245V10.7481ZM34.7591 24.2556H31.2591V31.4198H34.7591V24.2556ZM30.0924 30.3616V25.4497H26.6742L18.5861 27.8145C18.4457 27.8556 18.2954 27.8413 18.1649 27.7745L12.2084 24.7264C11.9757 24.6042 11.7189 24.5382 11.4574 24.5333C11.196 24.5284 10.9369 24.5848 10.7 24.6983C10.3046 24.8814 9.98993 25.2086 9.81724 25.6162L16.3616 29.0989C16.4989 29.172 16.6022 29.2979 16.6488 29.4489C16.6954 29.5999 16.6815 29.7637 16.6102 29.9042C16.5388 30.0448 16.4158 30.1505 16.2682 30.1982C16.1207 30.2459 15.9606 30.2317 15.8233 30.1586L4.34557 24.0498C4.13504 23.9378 3.90212 23.8771 3.6649 23.8722C3.42769 23.8674 3.19258 23.9186 2.97786 24.0219C2.76314 24.1252 2.57459 24.2778 2.42688 24.4679C2.27917 24.6579 2.17628 24.8802 2.12621 25.1176L17.3381 33.7669L30.0924 30.3616ZM20.7591 25.9375L26.432 24.2786C26.4842 24.2634 26.5382 24.2556 26.5924 24.2556V17.8913L18.4258 11.4997L10.2591 17.8913V23.5933C10.6502 23.417 11.0746 23.3315 11.5018 23.3428C11.929 23.3541 12.3485 23.4619 12.7302 23.6586L16.0924 25.3792L17.2591 25.9762L18.4837 26.6029L19.5924 26.2787L20.7591 25.9375ZM28.2914 17.7176L29.2191 16.7678L20.0541 9.26417L18.3679 8.40126L17.5644 8.63618L7.63215 16.7678L8.56016 17.7176L18.0715 10.274C18.1732 10.1943 18.2977 10.1512 18.4258 10.1512C18.5538 10.1512 18.6783 10.1943 18.7801 10.274L28.2914 17.7176ZM18.6867 7.22909L24.6432 10.2772C24.8758 10.3994 25.1327 10.4655 25.3941 10.4704C25.6556 10.4753 25.9146 10.419 26.1515 10.3056C26.547 10.1224 26.8616 9.79524 27.0343 9.38768L20.49 5.90483C20.3527 5.83178 20.2493 5.70589 20.2027 5.55487C20.1561 5.40385 20.17 5.24006 20.2414 5.09953C20.3128 4.959 20.4358 4.85325 20.5833 4.80554C20.7309 4.75783 20.8909 4.77207 21.0283 4.84513L32.506 10.954C32.7165 11.0659 32.9494 11.1267 33.1867 11.1315C33.4239 11.1364 33.659 11.0852 33.8737 10.9819C34.0884 10.8785 34.277 10.7259 34.4247 10.5359C34.5724 10.3459 34.6753 10.1235 34.7254 9.88619L19.5135 1.2369L6.75911 4.64221V9.5541H10.1774L18.2655 7.18901C18.4059 7.14797 18.5561 7.16227 18.6867 7.22909Z" fill="#403996"/>
<path d="M18.4727 20.5248C18.4649 20.5248 18.457 20.5243 18.4491 20.5243H18.4258C18.4181 20.5243 18.4103 20.5244 18.4026 20.5247C17.786 20.5379 17.1989 20.7977 16.7671 21.2484C16.3354 21.6992 16.0932 22.305 16.0924 22.9362V25.3792L17.2591 25.9762V22.9362C17.2595 22.6154 17.3834 22.3076 17.6039 22.0796C17.8245 21.8516 18.124 21.7218 18.4375 21.7183C18.5917 21.7198 18.7442 21.7526 18.8859 21.8147C19.0277 21.8769 19.156 21.9672 19.2634 22.0805C19.3708 22.1938 19.4552 22.3277 19.5117 22.4746C19.5682 22.6215 19.5956 22.7784 19.5924 22.9362V26.2787L20.7591 25.9375V22.9362C20.7613 22.3083 20.5234 21.7043 20.0961 21.2537C19.6688 20.803 19.0861 20.5414 18.4727 20.5248Z" fill="#F87864"/>
</svg>
