<svg width="24" height="24" viewBox="0 0 24 24" fill="none" xmlns="http://www.w3.org/2000/svg">
<path d="M14.3443 15.1239C14.6414 15.1239 14.9192 15.0068 15.1266 14.7942L16.9693 12.9049C17.3899 12.4737 17.3811 11.7807 16.9498 11.3601C16.5186 10.9396 15.8254 10.9483 15.4049 11.3795L14.3239 12.4877L14.1345 12.3036C13.7026 11.8838 13.0095 11.8934 12.5894 12.3252C12.1695 12.7571 12.1792 13.4501 12.6112 13.87L13.5827 14.8147C13.7878 15.0141 14.0583 15.1239 14.3443 15.1239ZM13.0947 12.8164C13.2439 12.6629 13.4901 12.6597 13.6434 12.8087L14.0849 13.2381C14.2242 13.3736 14.447 13.3705 14.5827 13.2315L15.9093 11.8714C16.0587 11.7182 16.3048 11.7152 16.4579 11.8645C16.6111 12.0139 16.6142 12.26 16.4649 12.4131L14.6222 14.3023C14.4798 14.4546 14.2204 14.4578 14.0739 14.3096L13.1024 13.365C12.949 13.2158 12.9455 12.9697 13.0947 12.8164Z" fill="white"/>
<path d="M11.6209 15.3636C11.5037 15.2083 11.2829 15.1773 11.1274 15.2945C10.9721 15.4117 10.9412 15.6326 11.0584 15.7879C11.1867 15.9579 11.3286 16.1209 11.4801 16.2724C12.3463 17.1385 13.498 17.6155 14.723 17.6155C15.948 17.6155 17.0996 17.1385 17.9658 16.2724C18.832 15.4064 19.309 14.2548 19.309 13.03C19.309 11.8052 18.832 10.6537 17.9658 9.78765C16.1776 7.9998 13.2683 7.99984 11.4801 9.78765C10.261 11.0065 9.82965 12.7846 10.3543 14.4281C10.4135 14.6134 10.6119 14.7156 10.7971 14.6566C10.9824 14.5974 11.0847 14.3992 11.0255 14.2139C10.5814 12.8227 10.9465 11.3176 11.9784 10.2858C13.4917 8.77267 15.9542 8.77267 17.4675 10.2858C18.2007 11.0189 18.6045 11.9934 18.6045 13.0301C18.6045 14.0667 18.2007 15.0413 17.4675 15.7743C16.7345 16.5073 15.7598 16.911 14.723 16.911C13.6862 16.911 12.7115 16.5074 11.9784 15.7743C11.8498 15.6457 11.7295 15.5076 11.6209 15.3636Z" fill="#292663"/>
<path d="M23.5153 19.4658L21.2928 17.2435C21.1551 17.106 20.9321 17.1059 20.7945 17.2435L20.7809 17.2571L19.9256 16.4019C20.5005 15.5155 20.8431 14.4913 20.9105 13.4225C20.9227 13.2283 20.7752 13.061 20.581 13.0487C20.387 13.0369 20.2196 13.184 20.2073 13.3781C20.1231 14.7126 19.5554 15.9688 18.6087 16.9154C17.5389 17.9852 16.1339 18.5207 14.7285 18.522C14.7267 18.522 14.725 18.5217 14.7231 18.5217H14.6952C13.2973 18.5147 11.9017 17.9794 10.8375 16.9154C9.79963 15.8777 9.22803 14.4979 9.22803 13.0303C9.22803 11.5627 9.79963 10.1829 10.8375 9.14521C12.98 7.00293 16.4662 7.00293 18.6087 9.14521C19.4067 9.94311 19.9333 10.9496 20.1317 12.0559C20.166 12.2473 20.3492 12.3746 20.5406 12.3404C20.7321 12.3061 20.8595 12.1231 20.8252 11.9315C20.6013 10.6829 20.0072 9.54716 19.107 8.64702C18.6609 8.201 18.1631 7.83758 17.6328 7.55619V4.71717C17.6325 4.62445 17.5951 4.5337 17.5296 4.46807L13.1642 0.103172C13.0985 0.0378281 13.0078 0.000234375 12.915 0H1.05694C0.474187 0 4.68749e-05 0.474046 4.68749e-05 1.05675V4.01751C4.68749e-05 4.21204 0.157734 4.36977 0.352359 4.36977C0.546937 4.36977 0.704671 4.21209 0.704671 4.01751V1.05675C0.704671 0.862499 0.862686 0.704483 1.05698 0.704483H12.5628V4.01268C12.5628 4.59538 13.037 5.06943 13.6197 5.06943H16.9283V7.23716C16.2409 6.97672 15.5163 6.84294 14.7904 6.83511C14.7869 6.83465 14.7836 6.83394 14.7799 6.83394H6.91433C6.71976 6.83394 6.56202 6.99168 6.56202 7.18621C6.56202 7.38074 6.71976 7.53847 6.91433 7.53847H11.8468C11.3442 7.80125 10.8705 8.13763 10.4415 8.54746H6.91433C6.71976 8.54746 6.56202 8.70519 6.56202 8.89972C6.56202 9.09425 6.71976 9.25199 6.91433 9.25199H9.80746C9.23239 9.99688 8.83939 10.8548 8.65129 11.7706H6.91438C6.7198 11.7706 6.56207 11.9283 6.56207 12.1228C6.56207 12.3174 6.7198 12.4751 6.91438 12.4751H8.54839C8.53218 12.6587 8.5236 12.8439 8.5236 13.0304C8.5236 13.1834 8.52918 13.3355 8.5401 13.4866H6.91443C6.71985 13.4866 6.56212 13.6444 6.56212 13.8389C6.56212 14.0334 6.71985 14.1912 6.91443 14.1912H8.63193C8.8116 15.1446 9.21219 16.0381 9.80853 16.8101H6.91443C6.71985 16.8101 6.56212 16.9677 6.56212 17.1623C6.56212 17.3569 6.71985 17.5146 6.91443 17.5146H10.4429C10.8713 17.9237 11.3443 18.2595 11.846 18.5219H6.91424C6.71966 18.5219 6.56193 18.6797 6.56193 18.8742C6.56193 19.0687 6.71966 19.2265 6.91424 19.2265H14.7231C15.4714 19.2264 16.2196 19.092 16.9282 18.8235V22.9434C16.9282 23.1376 16.7702 23.2957 16.5759 23.2957H1.05694C0.862686 23.2957 0.704624 23.1377 0.704624 22.9434V5.42671C0.704624 5.23218 0.54689 5.07445 0.352312 5.07445C0.157734 5.07445 0 5.23213 0 5.42671V22.9434C4.68749e-05 23.5259 0.474187 24 1.05694 24H16.576C17.1587 24 17.6329 23.5259 17.6329 22.9432V18.5043C17.7901 18.4209 17.9444 18.3301 18.0954 18.2322L18.9505 19.0872C18.8025 19.2164 18.7946 19.4626 18.9369 19.599L21.1595 21.8214C21.7795 22.4675 22.8953 22.4675 23.5153 21.8214C24.1616 21.2014 24.1615 20.0857 23.5153 19.4658ZM13.6197 4.36495C13.4254 4.36495 13.2673 4.20693 13.2673 4.01268V1.20267L16.43 4.36495H13.6197ZM18.6701 17.8105C18.8204 17.6862 18.9663 17.5541 19.107 17.4136C19.2468 17.2738 19.379 17.1279 19.5039 16.9767L20.2826 17.7552L19.4487 18.589L18.6701 17.8105ZM23.0171 21.3232C22.6593 21.6961 22.0155 21.696 21.6577 21.3232L19.6842 19.3499L21.0436 17.9907L23.0171 19.9639C23.39 20.3217 23.39 20.9654 23.0171 21.3232Z" fill="#292663"/>
<path d="M3.19695 9.60025H4.7382C5.17273 9.60025 5.52626 9.24682 5.52626 8.81238V7.27132C5.52626 6.83684 5.17278 6.4834 4.7382 6.4834H3.19695C2.76247 6.4834 2.40894 6.83684 2.40894 7.27132V8.81238C2.40894 9.24682 2.76247 9.60025 3.19695 9.60025ZM3.11356 7.27132C3.11356 7.22534 3.15101 7.18793 3.19695 7.18793H4.7382C4.78423 7.18793 4.82164 7.22534 4.82164 7.27132V8.81238C4.82164 8.85836 4.78418 8.89577 4.7382 8.89577H3.19695C3.15097 8.89577 3.11356 8.85836 3.11356 8.81238V7.27132Z" fill="#292663"/>
<path d="M2.40894 13.7513C2.40894 14.1857 2.76242 14.5392 3.19695 14.5392H4.7382C5.17273 14.5392 5.52626 14.1857 5.52626 13.7513V12.2102C5.52626 11.7758 5.17278 11.4224 4.7382 11.4224H3.19695C2.76247 11.4224 2.40894 11.7758 2.40894 12.2102V13.7513ZM3.11356 12.2102C3.11356 12.1643 3.15101 12.1268 3.19695 12.1268H4.7382C4.78423 12.1268 4.82164 12.1643 4.82164 12.2102V13.7513C4.82164 13.7973 4.78418 13.8347 4.7382 13.8347H3.19695C3.15097 13.8347 3.11356 13.7973 3.11356 13.7513V12.2102Z" fill="#292663"/>
<path d="M2.40894 18.7909C2.40894 19.2253 2.76242 19.5788 3.19695 19.5788H4.7382C5.17273 19.5788 5.52626 19.2253 5.52626 18.7909V17.2498C5.52626 16.8154 5.17278 16.4619 4.7382 16.4619H3.19695C2.76247 16.4619 2.40894 16.8154 2.40894 17.2498V18.7909ZM3.11356 17.2498C3.11356 17.2039 3.15101 17.1664 3.19695 17.1664H4.7382C4.78423 17.1664 4.82164 17.2039 4.82164 17.2498V18.7909C4.82164 18.8369 4.78418 18.8743 4.7382 18.8743H3.19695C3.15097 18.8743 3.11356 18.8369 3.11356 18.7909V17.2498Z" fill="#292663"/>
</svg>
