<svg id="nav_healthinsurance" xmlns="http://www.w3.org/2000/svg" xmlns:xlink="http://www.w3.org/1999/xlink" width="32" height="32" viewBox="0 0 32 32">
  <defs>
    <clipPath id="clip-path">
      <rect id="Rectangle_20743" data-name="Rectangle 20743" width="32" height="32" fill="#fff"/>
    </clipPath>
  </defs>
  <g id="Mask_Group_123" data-name="Mask Group 123" clip-path="url(#clip-path)">
    <g id="Group_1446" data-name="Group 1446" transform="translate(1.113 2.867)">
      <path id="Path_2395" data-name="Path 2395" d="M3959.62,650.054h18.855l.349,2.38.51,1.584H3961l-1.7-1.213Z" transform="translate(-3958.732 -628.698)" fill="#ebe7f2"/>
      <path id="Path_2396" data-name="Path 2396" d="M4052.5,610.264a.516.516,0,1,1,0-1.031h6.9a.516.516,0,1,1,0,1.031Z" transform="translate(-4038.199 -593.697)" fill="#f87864"/>
      <path id="Path_2397" data-name="Path 2397" d="M4014.87,610.264a.516.516,0,1,1,0-1.031h3.873a.516.516,0,0,1,0,1.031Z" transform="translate(-4005.935 -593.697)" fill="#f87864"/>
      <path id="Path_2398" data-name="Path 2398" d="M4082.719,624.413a.515.515,0,1,1,0-1.031h2.672a.515.515,0,1,1,0,1.031Z" transform="translate(-4064.111 -605.829)" fill="#f87864"/>
      <path id="Path_2399" data-name="Path 2399" d="M4014.87,624.413a.515.515,0,1,1,0-1.031h8.181a.515.515,0,1,1,0,1.031Z" transform="translate(-4005.935 -605.829)" fill="#f87864"/>
      <path id="Path_2400" data-name="Path 2400" d="M4030,536.99a.511.511,0,0,1-.309-.1c-.2-.149-4.89-3.686-4.89-6.381a3.128,3.128,0,0,1,5.2-2.347,3.1,3.1,0,0,1,2.068-.783,3.133,3.133,0,0,1,3.13,3.13c0,2.689-4.69,6.231-4.889,6.381A.512.512,0,0,1,4030,536.99Zm-2.068-8.583a2.1,2.1,0,0,0-2.1,2.1c0,1.6,2.578,4.061,4.167,5.317,1.59-1.257,4.167-3.717,4.167-5.317a2.1,2.1,0,0,0-3.759-1.28.516.516,0,0,1-.816,0A2.084,2.084,0,0,0,4027.936,528.408Z" transform="translate(-4014.897 -523.511)" fill="#403996"/>
      <path id="Path_2401" data-name="Path 2401" d="M3958.168,526.466a2.874,2.874,0,0,1-2.871-2.871V521.24a.516.516,0,0,1,.515-.516h4.2v-17.6a2.874,2.874,0,0,1,2.871-2.871h19.6a2.874,2.874,0,0,1,2.871,2.871v2.355a.516.516,0,0,1-.515.516h-4.191v17.6a2.874,2.874,0,0,1-2.871,2.871Zm17.245-5.742a.516.516,0,0,1,.516.516v2.355a1.84,1.84,0,1,0,3.68,0v-18.07a.194.194,0,0,1,0-.042v-2.355a2.833,2.833,0,0,1,.671-1.84h-17.4a1.842,1.842,0,0,0-1.84,1.84v17.6Zm-19.085,2.871a1.842,1.842,0,0,0,1.84,1.84h17.4a2.833,2.833,0,0,1-.671-1.84v-1.84h-18.57Zm27.987-18.627v-1.84a1.84,1.84,0,0,0-3.68,0v1.84Z" transform="translate(-3955.297 -500.257)" fill="#403996"/>
      <path id="Path_2402" data-name="Path 2402" d="M4049.114,549.548a.516.516,0,0,1-.516-.515v-.99h-.99a.516.516,0,0,1,0-1.031h.99v-.99a.515.515,0,1,1,1.031,0v.99h.99a.516.516,0,0,1,0,1.031h-.99v.99A.516.516,0,0,1,4049.114,549.548Z" transform="translate(-4034.007 -539.055)" fill="#f87864"/>
    </g>
  </g>
</svg>
