<svg id="vas_moneytransfer" xmlns="http://www.w3.org/2000/svg" xmlns:xlink="http://www.w3.org/1999/xlink" width="32" height="32" viewBox="0 0 32 32">
  <defs>
    <clipPath id="clip-path">
      <rect id="Rectangle_20746" data-name="Rectangle 20746" width="32" height="32" fill="#fff"/>
    </clipPath>
  </defs>
  <g id="Mask_Group_127" data-name="Mask Group 127" clip-path="url(#clip-path)">
    <g id="Group_938" data-name="Group 938" transform="translate(2.844 0.711)">
      <path id="Path_582" data-name="Path 582" d="M222.41,750.82h4.577a.294.294,0,0,1,.294.294v1.425a.294.294,0,0,0,.448.25l4.916-3.021a.294.294,0,0,0,0-.5l-4.916-3.021a.294.294,0,0,0-.448.25v1.425a.294.294,0,0,1-.294.294H222.41a.353.353,0,0,0-.353.353v1.9A.353.353,0,0,0,222.41,750.82Z" transform="translate(-206.432 -746.201)" fill="#f87864"/>
      <path id="Path_583" data-name="Path 583" d="M103.536,948.655H98.958a.294.294,0,0,0-.294.294v1.425a.294.294,0,0,1-.448.25L93.3,947.6a.294.294,0,0,1,0-.5l4.916-3.021a.294.294,0,0,1,.448.25v1.425a.294.294,0,0,0,.294.294h4.577a.353.353,0,0,1,.353.353v1.9a.353.353,0,0,1-.353.353Z" transform="translate(-93.16 -920.055)" fill="#f87864"/>
      <path id="Path_584" data-name="Path 584" d="M113.809,811.714A9.821,9.821,0,0,1,104,801.9a9.719,9.719,0,0,1,5.213-8.666h-6.977a.572.572,0,1,1,0-1.144h11.574a9.821,9.821,0,0,1,9.809,9.809,9.719,9.719,0,0,1-5.213,8.666h6.977a.572.572,0,1,1,0,1.143Zm0-18.475a8.666,8.666,0,1,0,8.666,8.666A8.676,8.676,0,0,0,113.809,793.239Z" transform="translate(-100.632 -786.532)" fill="#403996"/>
      <g id="Group_936" data-name="Group 936" transform="translate(1.603 2.003)">
        <path id="Path_585" data-name="Path 585" d="M106.666,762.722h12.028a.285.285,0,0,1,.285.285v2.046a.285.285,0,0,1-.285.285H106.666a.285.285,0,0,1-.285-.285v-2.046a.285.285,0,0,1,.285-.285Z" transform="translate(-106.381 -762.722)" fill="#e2e2ed"/>
        <path id="Path_586" data-name="Path 586" d="M193.706,960.6h12.028a.285.285,0,0,1,.285.285v2.046a.285.285,0,0,1-.285.285H193.706a.285.285,0,0,1-.285-.285v-2.046A.285.285,0,0,1,193.706,960.6Z" transform="translate(-182.87 -936.614)" fill="#e2e2ed"/>
      </g>
      <g id="Group_937" data-name="Group 937" transform="translate(5.713 7.912)">
        <path id="Path_587" data-name="Path 587" d="M147.8,826.5a7.513,7.513,0,1,1,7.513-7.513A7.521,7.521,0,0,1,147.8,826.5Zm0-13.761a6.248,6.248,0,1,0,6.248,6.248A6.255,6.255,0,0,0,147.8,812.736Z" transform="translate(-140.288 -811.471)" fill="#e2e2ed"/>
      </g>
      <path id="Path_588" data-name="Path 588" d="M186.119,838.68a2.119,2.119,0,0,0-.689-.751,5.591,5.591,0,0,0-1.316-.594,3.032,3.032,0,0,1-1.065-.534.816.816,0,0,1-.234-.635.89.89,0,0,1,.267-.689,1.137,1.137,0,0,1,.814-.26,1,1,0,0,1,.8.321,1.391,1.391,0,0,1,.3.958v.21a.157.157,0,0,0,.157.157h.992a.157.157,0,0,0,.157-.157v-.21a2.651,2.651,0,0,0-.55-1.749,2.082,2.082,0,0,0-1.105-.685.157.157,0,0,1-.12-.151v-.742a.157.157,0,0,0-.157-.157h-.911a.157.157,0,0,0-.157.157v.736a.158.158,0,0,1-.123.153,2.2,2.2,0,0,0-1.08.592,2.1,2.1,0,0,0-.587,1.53,2.071,2.071,0,0,0,.537,1.465,3.826,3.826,0,0,0,1.673.907,2.959,2.959,0,0,1,1.085.558.809.809,0,0,1,.236.611.823.823,0,0,1-.3.673,1.3,1.3,0,0,1-.876.278,1.32,1.32,0,0,1-.966-.322,1.206,1.206,0,0,1-.327-.914v-.21a.157.157,0,0,0-.157-.157h-1a.157.157,0,0,0-.157.157v.21a2.418,2.418,0,0,0,.633,1.749,2.364,2.364,0,0,0,1.264.658.158.158,0,0,1,.129.153v.661a.157.157,0,0,0,.157.157h.906a.157.157,0,0,0,.157-.157v-.675a.158.158,0,0,1,.125-.153,2.277,2.277,0,0,0,1.119-.586,2.063,2.063,0,0,0,.6-1.534,2.175,2.175,0,0,0-.232-1.031Z" transform="translate(-170.58 -822.49)" fill="#f87864"/>
    </g>
  </g>
</svg>
