<svg id="vas_airport" xmlns="http://www.w3.org/2000/svg" xmlns:xlink="http://www.w3.org/1999/xlink" width="32" height="32" viewBox="0 0 32 32">
  <defs>
    <clipPath id="clip-path">
      <rect id="Rectangle_20740" data-name="Rectangle 20740" width="32" height="32" fill="#fff"/>
    </clipPath>
  </defs>
  <g id="Mask_Group_121" data-name="Mask Group 121" clip-path="url(#clip-path)">
    <g id="Group_1144" data-name="Group 1144" transform="translate(1.758 1.565)">
      <path id="Path_884" data-name="Path 884" d="M3149.848,237.461h-4.218V248.94s2.257-1.606,7.226-2.231l.048-14.561h-3.057Z" transform="translate(-3144.42 -228.024)" fill="#e2e2ed"/>
      <path id="Path_885" data-name="Path 885" d="M3208.354,257.337c2.054.007.955-1.508-.111-1.508h-1.523l-2.788-2.695c-.622-.6-1.2.225-.787.814l1.412,1.884h-2.691l-.374-.374c-.734-.762-.759.05-.748.654v.582c0,.621.654.63.99.639h2.8l-1.393,1.858c-.408.589.165,1.415.787.814l2.762-2.67Z" transform="translate(-3191.891 -245.922)" fill="#f56a54"/>
      <g id="Group_1895" data-name="Group 1895" transform="translate(0 18.966)">
        <circle id="Ellipse_286-2" data-name="Ellipse 286-2" cx="1.889" cy="1.889" r="1.889" transform="translate(4.067 5.669)" fill="#403996"/>
        <circle id="Ellipse_287-2" data-name="Ellipse 287-2" cx="1.889" cy="1.889" r="1.889" transform="translate(22.424 5.669)" fill="#403996"/>
        <path id="Path_653-2" data-name="Path 653-2" d="M3136.9,344.642c.093-.957,0-2.2.5-2.376a23.9,23.9,0,0,1,3.565-1.821,26.374,26.374,0,0,1,11.58-.972c2.99.7,4.8,1.773,6.448,2.21,2.321.615,3.127.467,5.8,1.569a1.668,1.668,0,0,1,1.045.963,2.454,2.454,0,0,1-.229,1.74c-.04.29.116.29.206.29.021,0,.142.85-.27,1.01a12.389,12.389,0,0,1-1.178.5,3.533,3.533,0,0,1-.6-.058,2.744,2.744,0,0,0,.163-.931,2.715,2.715,0,0,0-5.428-.158q0,.079,0,.158a4.9,4.9,0,0,0,.093.952c-3.583.029-10.768-.142-13.193,0a2.663,2.663,0,0,0,.174-.952,2.715,2.715,0,0,0-5.431,0,2.746,2.746,0,0,0,.055.545,13.393,13.393,0,0,1-2.321-.2A3.716,3.716,0,0,1,3136.9,344.642Zm18.8-2.379a2.49,2.49,0,0,0,1.36-.339c-.156-.206-2.611-1.909-6.86-2.132.1.554.29,1.647.368,2.321C3152.831,342.208,3155.138,342.281,3155.7,342.263Zm-13.923-1.451h.023a2.285,2.285,0,0,0,.409.5c.639.516,1.955.5,4.2.635.676.04,1.705.09,2.84.139l.125-2.315a24.815,24.815,0,0,0-7.577,1.026c-.067-.04-.023.008-.023.008Z" transform="translate(-3136.9 -339.202)" fill="#403996"/>
      </g>
      <rect id="Rectangle_20894" data-name="Rectangle 20894" width="9.078" height="2.09" transform="translate(8.575 1.086)" fill="none"/>
      <g id="Group_1143" data-name="Group 1143" transform="translate(0.171)">
        <rect id="Rectangle_20895" data-name="Rectangle 20895" width="8.94" height="1.951" transform="translate(8.473 1.156)" fill="none"/>
        <path id="Path_886" data-name="Path 886" d="M3163.467,210.928h-4.115v-4.761a.51.51,0,0,0-.509-.508H3156.7v-2.735a.509.509,0,0,0-.506-.513h-10.236a.51.51,0,0,0-.508.508v2.735h-2.14a.509.509,0,0,0-.508.508v4.764h-4.159a.51.51,0,0,0-.509.509v12.487c.316-.224.657-.444,1.017-.654V211.946h3.652v9.787c.34-.094.681-.177,1.017-.246V206.674h14.513l-.036,15.839c.376.147.73.279,1.052.4V211.946h3.606v11.849c.334.066.68.134,1.017.2V211.436A.509.509,0,0,0,3163.467,210.928Zm-7.78-5.272h-9.217v-2.229h9.217Z" transform="translate(-3138.136 -202.411)" fill="#403996"/>
        <path id="Path_887" data-name="Path 887" d="M3207.823,210.247h-9.078v2.09h9.078Zm-.069,2.021h-8.94v-1.951h8.94Z" transform="translate(-3190.342 -209.161)" fill="#fff"/>
        <path id="Path_888" data-name="Path 888" d="M3198.246,211.976h9.217v-2.229h-9.217Z" transform="translate(-3189.911 -208.73)" fill="#fff"/>
      </g>
    </g>
  </g>
</svg>
