<svg id="vas_forex" xmlns="http://www.w3.org/2000/svg" xmlns:xlink="http://www.w3.org/1999/xlink" width="32" height="32" viewBox="0 0 32 32">
  <defs>
    <clipPath id="clip-path">
      <rect id="Rectangle_20742" data-name="Rectangle 20742" width="32" height="32" fill="#fff"/>
    </clipPath>
  </defs>
  <g id="Mask_Group_124" data-name="Mask Group 124" clip-path="url(#clip-path)">
    <g id="Group_1170" data-name="Group 1170" transform="translate(1.067 0.711)">
      <path id="Path_916" data-name="Path 916" d="M2816.342,486.509a8.49,8.49,0,1,1,8.49-8.49,8.513,8.513,0,0,1-8.49,8.49Zm-.1-15.653a7.167,7.167,0,0,0,.1,14.333h0a7.167,7.167,0,0,0,0-14.333Z" transform="translate(-2807.852 -469.529)" fill="#403996"/>
      <path id="Path_917" data-name="Path 917" d="M2821.2,488.957a6.078,6.078,0,1,1,4.3-1.782,6.093,6.093,0,0,1-4.3,1.782Zm0-10.829a4.66,4.66,0,1,0,.161,0Z" transform="translate(-2812.71 -474.388)" fill="#403996"/>
      <path id="Path_918" data-name="Path 918" d="M2871.8,488.65a.657.657,0,0,1-.469-.195l-2.053-2.053a.664.664,0,1,1,.939-.939l.919.919v-4.6a3,3,0,0,0-2.989-2.993h-4.67a.664.664,0,0,1,0-1.327h4.67a4.33,4.33,0,0,1,4.316,4.321v4.606l.919-.919a.663.663,0,0,1,.938,0,.665.665,0,0,1,0,.939l-2.074,2.074,0,0A.658.658,0,0,1,2871.8,488.65Z" transform="translate(-2844.574 -474.828)" fill="#f56a54"/>
      <path id="Path_919" data-name="Path 919" d="M2816.537,530.435a4.329,4.329,0,0,1-4.32-4.321v-4.627l-.919.918a.664.664,0,1,1-.938-.939l2.027-2.027.006-.013.028-.022a.663.663,0,0,1,.928.011l2.053,2.052a.664.664,0,0,1-.939.939l-.918-.919v4.626a3,3,0,0,0,2.993,2.993h5.124a.664.664,0,0,1,0,1.327Z" transform="translate(-2809.398 -502.733)" fill="#f56a54"/>
      <path id="Path_920" data-name="Path 920" d="M2855.853,527.255a8.49,8.49,0,1,1,6-2.486,8.434,8.434,0,0,1-6,2.486Zm0-15.654a7.167,7.167,0,0,0,0,14.333h0a7.167,7.167,0,1,0,0-14.333l0-.205Z" transform="translate(-2834.253 -496.754)" fill="#403996"/>
      <path id="Path_921" data-name="Path 921" d="M2860.718,529.7a6.078,6.078,0,1,1,6.078-6.078,6.094,6.094,0,0,1-6.078,6.078Zm0-10.829a4.661,4.661,0,1,0,.16,0Z" transform="translate(-2839.115 -501.612)" fill="#403996"/>
      <g id="Group_1169" data-name="Group 1169" transform="translate(5.662 6.01)">
        <path id="Path_922" data-name="Path 922" d="M2829.145,490.859l.659.614a2.079,2.079,0,0,1-.79.595,2.612,2.612,0,0,1-1.052.2,2.663,2.663,0,0,1-1.033-.2,2.247,2.247,0,0,1-.809-.563,2.191,2.191,0,0,1-.48-.844h-.723v-.538h.627a2.353,2.353,0,0,1,0-.345h-.627v-.537h.723a2.192,2.192,0,0,1,.48-.844,2.248,2.248,0,0,1,.809-.563,2.663,2.663,0,0,1,1.033-.2,2.612,2.612,0,0,1,1.052.2,2.112,2.112,0,0,1,.79.589l-.659.614a1.461,1.461,0,0,0-1.132-.525,1.482,1.482,0,0,0-.755.192,1.3,1.3,0,0,0-.512.531h1.618v.537h-1.778a2.353,2.353,0,0,0,0,.345h1.778v.538h-1.618a1.3,1.3,0,0,0,.512.531,1.482,1.482,0,0,0,.755.192A1.441,1.441,0,0,0,2829.145,490.859Z" transform="translate(-2824.916 -487.641)" fill="#403996"/>
      </g>
      <path id="Path_923" data-name="Path 923" d="M2871.37,529.891a1.335,1.335,0,0,0-.434-.473,3.518,3.518,0,0,0-.829-.374,1.909,1.909,0,0,1-.671-.336.515.515,0,0,1-.147-.4.561.561,0,0,1,.168-.434.716.716,0,0,1,.513-.164.627.627,0,0,1,.5.2.875.875,0,0,1,.189.6v.132a.1.1,0,0,0,.1.1h.625a.1.1,0,0,0,.1-.1v-.132a1.669,1.669,0,0,0-.346-1.1,1.314,1.314,0,0,0-.7-.432.1.1,0,0,1-.076-.1v-.468a.1.1,0,0,0-.1-.1h-.574a.1.1,0,0,0-.1.1v.463a.1.1,0,0,1-.078.1,1.387,1.387,0,0,0-.68.373,1.321,1.321,0,0,0-.369.964,1.3,1.3,0,0,0,.338.923,2.406,2.406,0,0,0,1.054.571,1.866,1.866,0,0,1,.684.352.51.51,0,0,1,.149.385.52.52,0,0,1-.19.424.819.819,0,0,1-.552.175.832.832,0,0,1-.609-.2.76.76,0,0,1-.206-.575v-.132a.1.1,0,0,0-.1-.1h-.628a.1.1,0,0,0-.1.1v.132a1.523,1.523,0,0,0,.4,1.1,1.489,1.489,0,0,0,.8.414.1.1,0,0,1,.081.1v.417a.1.1,0,0,0,.1.1h.571a.1.1,0,0,0,.1-.1v-.425a.1.1,0,0,1,.079-.1,1.434,1.434,0,0,0,.7-.369,1.3,1.3,0,0,0,.38-.967,1.368,1.368,0,0,0-.146-.649Z" transform="translate(-2848.249 -507.477)" fill="#403996"/>
    </g>
  </g>
</svg>
