<svg id="vas_travelinsurance" xmlns="http://www.w3.org/2000/svg" xmlns:xlink="http://www.w3.org/1999/xlink" width="32" height="32" viewBox="0 0 32 32">
  <defs>
    <clipPath id="clip-path">
      <rect id="Rectangle_20747" data-name="Rectangle 20747" width="32" height="32" fill="#fff"/>
    </clipPath>
  </defs>
  <g id="Mask_Group_128" data-name="Mask Group 128" clip-path="url(#clip-path)">
    <g id="Group_1171" data-name="Group 1171" transform="translate(1.177 1.596)">
      <path id="Path_924" data-name="Path 924" d="M2499.581,362.734h-15.8a.431.431,0,0,1-.431-.432v-2.755a.431.431,0,0,1,.431-.432h15.8l.43.009,0,.423V362.3A.432.432,0,0,1,2499.581,362.734Z" transform="translate(-2482.434 -340.893)" fill="#e2e2ed"/>
      <path id="Path_925" data-name="Path 925" d="M2551.3,278.111a.584.584,0,0,1-.414-.173l-2.466-2.465a.591.591,0,0,1,.338-1l1.468-.195.953-1.021-2.552-2.551a.59.59,0,0,1,0-.83l.357-.358a.59.59,0,0,1,.654-.121l3.634,1.617,1.109-1.188a1.537,1.537,0,1,1,2.147,2.146l-1.188,1.11,1.618,3.632a.59.59,0,0,1-.121.654l-.357.358a.588.588,0,0,1-.83,0l-2.551-2.55-1.021.953-.194,1.468a.59.59,0,0,1-.584.511Zm-2.157-2.949,2.055,2.054.163-1.23a.591.591,0,0,1,.181-.352l1.16-1.083a.585.585,0,0,1,.816.014l2.547,2.547.186-.186-1.619-3.635a.587.587,0,0,1,.135-.668l1.264-1.18c.958-.964-.147-2.075-1.114-1.114l-1.179,1.263a.588.588,0,0,1-.668.136l-3.636-1.619-.186.186,2.548,2.548a.585.585,0,0,1,.014.816l-1.083,1.16a.587.587,0,0,1-.351.181Zm2.9,1.005h0Z" transform="translate(-2539.84 -261.387)" fill="#f87864"/>
      <path id="Path_926" data-name="Path 926" d="M2477.3,223.151a1.921,1.921,0,0,1-1.919-1.918V207.725a1.921,1.921,0,0,1,1.919-1.919h6.314v-1.874a2.716,2.716,0,0,1,2.713-2.713h3.983a2.716,2.716,0,0,1,2.712,2.713v1.874h6.314a1.921,1.921,0,0,1,1.918,1.919v6.9a.588.588,0,1,1-1.175,0v-6.9a.744.744,0,0,0-.743-.743h-1.2V215.1a.588.588,0,1,1-1.175,0v-8.116h-1.792v9.381a.588.588,0,0,1-.587.588c-.324,0-.588.537-.588.213V206.982h-11.36v14.994h9.754a.588.588,0,1,1,0,1.175Zm4.164-1.175V206.982h-1.792v14.994Zm-4.164-14.994a.744.744,0,0,0-.743.743v13.507a.744.744,0,0,0,.743.743h1.2V206.982Zm13.832-1.175h.716v-1.874a1.539,1.539,0,0,0-1.537-1.537h-3.983a1.539,1.539,0,0,0-1.537,1.537v1.874h.716m1.175,0h3.275" transform="translate(-2475.38 -201.22)" fill="#403996"/>
      <path id="Path_927" data-name="Path 927" d="M2642.157,329.266a1.652,1.652,0,0,1-1.117-.437l-2.686-2.46a5.609,5.609,0,0,1-1.816-4.126v-5.482a1.273,1.273,0,0,1,.885-1.215l4.227-1.363a1.643,1.643,0,0,1,1.015,0l4.226,1.363a1.273,1.273,0,0,1,.885,1.215v5.481a5.608,5.608,0,0,1-1.816,4.126l-2.686,2.46A1.649,1.649,0,0,1,2642.157,329.266Zm0-14.117a.608.608,0,0,0-.187.03l-4.226,1.363a.231.231,0,0,0-.161.221v5.481a4.561,4.561,0,0,0,1.477,3.355l2.686,2.459a.6.6,0,0,0,.823,0l2.686-2.459a4.56,4.56,0,0,0,1.477-3.355v-5.481a.232.232,0,0,0-.161-.221l-4.226-1.363A.608.608,0,0,0,2642.157,315.148Z" transform="translate(-2617.938 -301.075)" fill="#f87864"/>
      <path id="Path_928" data-name="Path 928" d="M2655.769,342.969a.785.785,0,0,1-.531-.207l-2.072-1.9a3.832,3.832,0,0,1-1.241-2.819v-4.2a.783.783,0,0,1,.545-.748l3.057-.986a.779.779,0,0,1,.483,0l3.057.986a.783.783,0,0,1,.545.748v4.2a3.832,3.832,0,0,1-1.241,2.819l-2.072,1.9A.786.786,0,0,1,2655.769,342.969Zm-2.914-4.924a2.9,2.9,0,0,0,.939,2.134l1.974,1.808,1.976-1.808a2.9,2.9,0,0,0,.939-2.134v-4.1l-2.914-.941-2.913.939v.039h0Z" transform="translate(-2631.55 -316.969)" fill="#e2e2ed"/>
      <path id="Path_929" data-name="Path 929" d="M2668.843,361.869l-1.1,1.1-.515-.515a.858.858,0,0,0-1.213,1.213l1.122,1.122a.862.862,0,0,0,1.213,0l1.71-1.71a.852.852,0,0,0,.251-.606A.861.861,0,0,0,2668.843,361.869Zm.817.817-1.71,1.71a.3.3,0,0,1-.421,0l-1.122-1.122a.3.3,0,0,1,.421-.421l.713.713a.279.279,0,0,0,.4,0l1.3-1.3A.3.3,0,0,1,2669.66,362.686Z" transform="translate(-2643.785 -343.108)" fill="#f87864"/>
      <rect id="Rectangle_20902" data-name="Rectangle 20902" width="4.917" height="1.589" rx="0.794" transform="translate(10.429 2.123)" fill="#e2e2ed"/>
    </g>
  </g>
</svg>
