<svg id="vas_educationloan" xmlns="http://www.w3.org/2000/svg" xmlns:xlink="http://www.w3.org/1999/xlink" width="32" height="32" viewBox="0 0 32 32">
  <defs>
    <clipPath id="clip-path">
      <rect id="Rectangle_20741" data-name="Rectangle 20741" width="32" height="32" fill="#fff"/>
    </clipPath>
  </defs>
  <g id="Mask_Group_122" data-name="Mask Group 122" clip-path="url(#clip-path)">
    <g id="Group_1142" data-name="Group 1142" transform="translate(0 -0.708)">
      <path id="Path_880" data-name="Path 880" d="M2843.663,316.426a17.223,17.223,0,0,0,13.269,2.28l-.456,3.511-.958.821-6.064-.41-5.837-2.143-.684-2.553Z" transform="translate(-2836.385 -297.932)" fill="#e2e2ed"/>
      <rect id="Rectangle_20893" data-name="Rectangle 20893" width="32" height="32" transform="translate(0 0)" fill="none"/>
      <g id="Group_1141" data-name="Group 1141" transform="translate(0.064 4.357)">
        <path id="Path_881" data-name="Path 881" d="M2983.7,337.889v.91h-.876v-.842a3.7,3.7,0,0,1-1.55-.4l.27-1.044a3.2,3.2,0,0,0,1.482.4c.54,0,.876-.2.876-.573,0-.338-.27-.539-.943-.775-.943-.337-1.617-.774-1.617-1.65a1.658,1.658,0,0,1,1.516-1.617v-.842h.876v.809a3.014,3.014,0,0,1,1.314.3l-.27,1.01a3.1,3.1,0,0,0-1.314-.3c-.572,0-.774.236-.774.506,0,.3.3.471,1.078.774,1.078.37,1.516.876,1.549,1.651A1.735,1.735,0,0,1,2983.7,337.889Z" transform="translate(-2957.841 -316.543)" fill="none"/>
        <path id="Path_882" data-name="Path 882" d="M2816.789,222.25l-.051-.009v-3.225l4.72-2a.6.6,0,0,0,0-1.1l-14.855-6.1a.6.6,0,0,0-.459,0c-.13.054-12.988,5.4-14.418,5.963a.955.955,0,0,0-.257.128l-.268.2a.694.694,0,0,0-.312.559.6.6,0,0,0,.366.514l.475.183v4.064l-.045.012a2.25,2.25,0,0,0-1.591,2.756,2.239,2.239,0,0,0,1.854,1.639,2.272,2.272,0,0,0,2.591-2.23,2.289,2.289,0,0,0-1.607-2.164l-.043-.013v-3.611l3.255,1.365v.04l.067,6.8a.711.711,0,0,0,.093.341c.384.521,2.646,3.127,9.719,3.472.358.036.752.033,1.1.034a15.89,15.89,0,0,0,2.52-.2l.056-.009.013.056a6.165,6.165,0,1,0,7.073-7.468Zm-23.408,1.321a1.106,1.106,0,1,1-1.108-1.105,1.132,1.132,0,0,1,1.108,1.1m-.458-7.006,13.467-5.557.023.01,13.308,5.479-3.532,1.475c-.1.017-1.381.584-2.164.938l-7.672,3.21Zm22.656,2.939v2.646h-.06a4.947,4.947,0,0,0-1.2.167l-.077.021V220.1l.3-.151Zm-6.064,8.82v.186l-.052.008a15.467,15.467,0,0,1-2.452.2q-.449,0-.9-.026c-5.874-.3-8.143-2.256-8.7-2.849l-.017-.017v-.024l-.068-6.122,8.777,3.606a.506.506,0,0,0,.208.029.459.459,0,0,0,.217-.029l6.484-2.731v2.219l-.034.017A6.152,6.152,0,0,0,2809.516,228.322Zm6.206,4.979h-.027a4.993,4.993,0,0,1-4.954-4.979,4.98,4.98,0,1,1,4.981,4.98Z" transform="translate(-2790.016 -209.77)" fill="#403996"/>
        <path id="Path_883" data-name="Path 883" d="M2983.772,334.554c-.775-.3-1.078-.472-1.078-.774,0-.27.2-.506.774-.506a3.1,3.1,0,0,1,1.314.3l.27-1.01a3.014,3.014,0,0,0-1.314-.3v-.809h-.876v.842a1.658,1.658,0,0,0-1.516,1.617c0,.876.674,1.314,1.617,1.65.673.236.943.438.943.775,0,.37-.337.573-.876.573a3.2,3.2,0,0,1-1.482-.4l-.27,1.044a3.7,3.7,0,0,0,1.55.4v.842h.876v-.91a1.735,1.735,0,0,0,1.617-1.684C2985.289,335.43,2984.851,334.924,2983.772,334.554Z" transform="translate(-2957.841 -316.543)" fill="#f87864"/>
      </g>
    </g>
  </g>
</svg>
