<svg id="vas_jobsearch" xmlns="http://www.w3.org/2000/svg" xmlns:xlink="http://www.w3.org/1999/xlink" width="32" height="32" viewBox="0 0 32 32">
  <defs>
    <clipPath id="clip-path">
      <rect id="Rectangle_20744" data-name="Rectangle 20744" width="32" height="32" fill="#fff"/>
    </clipPath>
  </defs>
  <g id="Mask_Group_125" data-name="Mask Group 125" clip-path="url(#clip-path)">
    <g id="Group_945" data-name="Group 945" transform="translate(0.711 0.711)">
      <path id="Path_624" data-name="Path 624" d="M1620.871,759.984a.62.62,0,0,1-.433-.175l-1.453-1.453a2.525,2.525,0,0,1,0-3.568l1.343-1.343a2.525,2.525,0,0,1,3.568,0l1.462,1.462a.623.623,0,1,1-.9.865l-1.434-1.434-.035-.027-.007-.015a1.277,1.277,0,0,0-1.777.029l-1.344,1.343a1.281,1.281,0,0,0,0,1.807l1.449,1.449a.623.623,0,0,1-.445,1.059Z" transform="translate(-1594.957 -729.418)" fill="#403996"/>
      <path id="Path_625" data-name="Path 625" d="M1470.768,619a13.763,13.763,0,1,1,11.351-5.98l.485.485a.623.623,0,0,1-.88.882l-.86-.86a.626.626,0,0,1-.059-.813,12.518,12.518,0,1,0-10.031,5.041h0a12.415,12.415,0,0,0,7.47-2.481.623.623,0,0,1,.813.059l.859.859a.625.625,0,0,1,0,.878.618.618,0,0,1-.442.184h0a.619.619,0,0,1-.438-.181l-.486-.486A13.687,13.687,0,0,1,1470.768,619Z" transform="translate(-1457.001 -591.474)" fill="#403996"/>
      <path id="Path_626" data-name="Path 626" d="M1487.657,633.032a10.912,10.912,0,0,1,0-21.825h0a10.912,10.912,0,0,1,0,21.825Zm0-20.515a9.6,9.6,0,1,0,6.791,2.813,9.54,9.54,0,0,0-6.791-2.812Z" transform="translate(-1473.893 -608.357)" fill="#e2e2ed"/>
      <path id="Path_627" data-name="Path 627" d="M1509.719,695.025c0,1.265,1.025.943,2.29.943h7.57c1.265,0,2.29.322,2.29-.943v1.59a1.69,1.69,0,0,1-1.69,1.69h-8.77a1.69,1.69,0,0,1-1.69-1.69v-1.59Z" transform="translate(-1502.104 -680.068)" fill="#ebe7f2"/>
      <path id="Path_628" data-name="Path 628" d="M1507.354,666.472a1.24,1.24,0,0,1-1.238-1.238v-6.808a1.239,1.239,0,0,1,1.238-1.238h10.715a1.239,1.239,0,0,1,1.238,1.238v6.808a1.239,1.239,0,0,1-1.238,1.238Zm-.2-1.238a.2.2,0,0,0,.2.2h10.716a.2.2,0,0,0,.2-.2v-3.092a2.822,2.822,0,0,1-1.77.631h-2.732a.521.521,0,0,1,0-1.041h2.732a1.772,1.772,0,0,0,1.77-1.77v-1.536a.2.2,0,0,0-.2-.2h-10.716a.2.2,0,0,0-.2.2v1.536a1.772,1.772,0,0,0,1.77,1.77h2.732a.521.521,0,0,1,0,1.041h-2.732a2.821,2.821,0,0,1-1.77-.631Z" transform="translate(-1499.021 -647.695)" fill="#f87864"/>
      <path id="Path_629" data-name="Path 629" d="M1537.382,644.89a.521.521,0,0,1-.521-.521v-.977a.041.041,0,0,0-.041-.041h-3.474a.041.041,0,0,0-.041.041v.977a.521.521,0,0,1-1.041,0v-.977a1.083,1.083,0,0,1,1.082-1.082h3.474a1.083,1.083,0,0,1,1.082,1.082v.977A.521.521,0,0,1,1537.382,644.89Z" transform="translate(-1521.393 -634.967)" fill="#f87864"/>
      <rect id="Rectangle_20737" data-name="Rectangle 20737" width="3.521" height="1.915" rx="0.958" transform="translate(11.926 13.615)" fill="#f87864"/>
    </g>
  </g>
</svg>
