<svg id="vas_guarantor" xmlns="http://www.w3.org/2000/svg" xmlns:xlink="http://www.w3.org/1999/xlink" width="32" height="32" viewBox="0 0 32 32">
  <defs>
    <clipPath id="clip-path">
      <rect id="Rectangle_20739" data-name="Rectangle 20739" width="32" height="32" fill="#fff"/>
    </clipPath>
  </defs>
  <g id="Mask_Group_120" data-name="Mask Group 120" clip-path="url(#clip-path)">
    <g id="Group_942" data-name="Group 942" transform="translate(0.711 1.067)">
      <path id="Path_601" data-name="Path 601" d="M408.42,332.962a.7.7,0,0,1,.205-.5l7.043-7.055a.7.7,0,0,1,.993,0,3.017,3.017,0,0,1,.779,1.366l-7.246,7.258c-.85-.3-1.295-.3-1.569-.576A.7.7,0,0,1,408.42,332.962Z" transform="translate(-407.835 -317.908)" fill="#e2e2ed"/>
      <path id="Path_602" data-name="Path 602" d="M586.165,331.6c-.274.274-.719.274-1.569.576l-7.246-7.258a3.015,3.015,0,0,1,.779-1.365.7.7,0,0,1,.993,0l7.043,7.055a.7.7,0,0,1,0,.993Z" transform="translate(-556.251 -316.274)" fill="#e2e2ed"/>
      <path id="Path_603" data-name="Path 603" d="M425.812,332.662a.459.459,0,0,1-.327-.136l-6.422-6.421-2.487,2.486a1.606,1.606,0,0,1-1.143.474q-.079,0-.158-.008a1.618,1.618,0,0,1-.976-2.769l2.517-2.517-.755-.244a.468.468,0,0,1-.185-.113l-1.341-1.34-5.609,5.609,1.762,1.762a.457.457,0,0,1,.077.1l.677,1.208a.463.463,0,1,1-.807.452l-.646-1.153-1.717-1.717-.224.224a.724.724,0,0,1-1.023,0l-3.214-3.214a.723.723,0,0,1,0-1.023l7.371-7.371a.723.723,0,0,1,1.023,0l3.214,3.214a.724.724,0,0,1,0,1.023l-.23.23,1.262,1.262,1.107.358a1.677,1.677,0,0,1,1.083-.4h2.344l1.755-1.755-.115-.115a.724.724,0,0,1,0-1.023l3.214-3.214a.723.723,0,0,1,1.023,0l7.371,7.371a.722.722,0,0,1,0,1.023l-3.214,3.214a.724.724,0,0,1-1.023,0l-.324-.325-1.344,1.344L426.2,332.45a.461.461,0,0,1-.34.208A.4.4,0,0,1,425.812,332.662Zm-6.749-7.674a.46.46,0,0,1,.327.135l6.344,6.344,1.844-2.847a.462.462,0,0,1,.061-.076l1.379-1.379-5.623-5.623-1.89,1.89a.46.46,0,0,1-.327.135h-2.535a.755.755,0,0,0-.537.222l-3.152,3.152a.693.693,0,0,0,.41,1.193c.023,0,.046,0,.068,0a.687.687,0,0,0,.489-.2l2.814-2.814A.461.461,0,0,1,419.063,324.988Zm-11.525,2.777,7.086-7.085-2.928-2.928-7.086,7.085Zm22.97-.417,2.928-2.928-7.085-7.085-2.928,2.928Z" transform="translate(-403.601 -310.106)" fill="#403996"/>
      <path id="Path_604" data-name="Path 604" d="M462.892,446.406a1.608,1.608,0,0,1-1.61-1.375,1.476,1.476,0,0,1-.289.029,1.619,1.619,0,0,1-1.2-.557,1.563,1.563,0,0,1-.4-1.061h-.03a1.619,1.619,0,0,1-1.538-1.986,1.611,1.611,0,0,1-.845-2.715l1.146-1.146a1.54,1.54,0,0,1,1.115-.468,1.615,1.615,0,0,1,1.529,1.054,1.567,1.567,0,0,1,1.063-.419,1.656,1.656,0,0,1,1.388.773,1.858,1.858,0,0,0,1.182,2.325,1.843,1.843,0,0,0,1.02,2.454,1.579,1.579,0,0,1-.394,1.605L464,445.938a1.551,1.551,0,0,1-1.113.468Zm.991-3.3a.7.7,0,0,0-.477.206l-1.017,1.016a.656.656,0,0,0-.149.73.719.719,0,0,0,.635.433.7.7,0,0,0,.477-.206l1.016-1.016a.657.657,0,0,0,.149-.731A.719.719,0,0,0,463.883,443.1Zm-.954-2.276a.7.7,0,0,0-.477.206l-1.939,1.94a.683.683,0,0,0,0,.959l0,0a.683.683,0,0,0,.957,0l.264-.263h0l1.68-1.68a.655.655,0,0,0,.15-.73A.72.72,0,0,0,462.929,440.826Zm-1.084-2.133a.663.663,0,0,0-.479.2l-2.468,2.468a.679.679,0,0,0,.96.961l2.466-2.466a.68.68,0,0,0,0-.96A.664.664,0,0,0,461.845,438.693Zm-2.6-.646a.7.7,0,0,0-.477.206l-1.145,1.145a.675.675,0,0,0-.2.48.625.625,0,0,0,.182.461.736.736,0,0,0,.516.217.626.626,0,0,0,.46-.2l1.149-1.149a.656.656,0,0,0,.149-.73A.719.719,0,0,0,459.249,438.046Z" transform="translate(-450.08 -416.24)" fill="#403996"/>
      <path id="Path_605" data-name="Path 605" d="M465.054,443.208a7.122,7.122,0,0,0-5.965-4.647l-1.147,1.147a10.217,10.217,0,0,0,4.332,6.05,1.486,1.486,0,0,0,2.527.973l1.019-1.019a1.489,1.489,0,0,0-.766-2.5Zm-6.864-2.451a.8.8,0,0,1,.234-.566l1.147-1.147a.8.8,0,0,1,1.132,1.132l-1.148,1.147A.8.8,0,0,1,458.189,440.756Zm1.505,2.525a.8.8,0,0,1,0-1.132l2.466-2.466a.8.8,0,0,1,1.132,1.132l-2.466,2.466A.8.8,0,0,1,459.695,443.281Zm1.615,1.615a.8.8,0,0,1,0-1.132l1.942-1.942a.8.8,0,0,1,1.132,1.132l-1.68,1.68-.262.262a.8.8,0,0,1-1.132,0Zm4.028.334-1.019,1.019a.8.8,0,0,1-1.132-1.132l1.019-1.019a.8.8,0,0,1,1.132,1.132Z" transform="translate(-450.963 -417.119)" fill="#403996"/>
      <path id="Path_606" data-name="Path 606" d="M531.421,459.867a1.554,1.554,0,0,1-1.114-.468l-.365-.365a.445.445,0,0,1-.1-.5.482.482,0,0,1,.435-.3.456.456,0,0,1,.32.136l.367.367a.7.7,0,0,0,.475.2.718.718,0,0,0,.635-.433.658.658,0,0,0-.15-.732l-.282-.282c-.161-.161-.241-.241-.281-.287l0,0-.118-.118a.445.445,0,0,1-.1-.5.483.483,0,0,1,.436-.3.454.454,0,0,1,.32.137l.985.984a.627.627,0,0,0,.462.2.735.735,0,0,0,.516-.217.623.623,0,0,0,.182-.458.677.677,0,0,0-.2-.484l-.931-.932a.446.446,0,0,1-.1-.5.482.482,0,0,1,.435-.3.455.455,0,0,1,.32.137l1.138,1.14a.63.63,0,0,0,.452.186.733.733,0,0,0,.512-.215.629.629,0,0,0,.184-.462.676.676,0,0,0-.2-.482l-.943-.943a.463.463,0,1,1,.654-.654l1.3,1.3a.675.675,0,0,0,.48.2h.017a.684.684,0,0,0,.465-1.158.448.448,0,0,1-.1-.5.481.481,0,0,1,.434-.295.459.459,0,0,1,.32.136,1.619,1.619,0,0,1,.333.488,1.542,1.542,0,0,1-.112,1.5,1.629,1.629,0,0,1-1.349.758h0a1.538,1.538,0,0,1-.394-.052,1.64,1.64,0,0,1-1.578,1.311,1.451,1.451,0,0,1-.213-.016,1.526,1.526,0,0,1-.445.935,1.65,1.65,0,0,1-1.163.5,1.437,1.437,0,0,1-.319-.036A1.614,1.614,0,0,1,531.421,459.867Z" transform="translate(-514.479 -430.181)" fill="#403996"/>
      <path id="Path_607" data-name="Path 607" d="M539.367,454.547a1.5,1.5,0,0,0-.306-.449.341.341,0,0,0-.483.483.8.8,0,0,1-.566,1.367.792.792,0,0,1-.566-.235l-1.3-1.3a.341.341,0,0,0-.483.483l.943.943a.8.8,0,0,1,.234.566.8.8,0,0,1-1.356.578l-1.137-1.139a.341.341,0,0,0-.483.482l.931.932a.8.8,0,0,1,.235.567.8.8,0,0,1-1.367.566l-.984-.983a.341.341,0,0,0-.482.483l.118.118.568.568a.8.8,0,0,1-1.132,1.132l-.366-.366a.341.341,0,0,0-.483.482l.366.366a25.52,25.52,0,0,0,6.248-3.648,1.486,1.486,0,0,0,1.847-2Z" transform="translate(-515.357 -431.06)" fill="#403996"/>
      <path id="Path_608" data-name="Path 608" d="M429.349,381.131a.463.463,0,0,1-.327-.79l.66-.66a.463.463,0,1,1,.654.654l-.66.66A.459.459,0,0,1,429.349,381.131Z" transform="translate(-425.816 -365.65)" fill="#403996"/>
      <path id="Path_609" data-name="Path 609" d="M585.394,344.035a.46.46,0,0,1-.327-.136l-.623-.623a.463.463,0,1,1,.654-.654l.623.623a.463.463,0,0,1-.327.79Z" transform="translate(-562.364 -333.091)" fill="#403996"/>
      <path id="Path_610" data-name="Path 610" d="M500.631,276.233a1.278,1.278,0,0,1-.864-.338l-1.94-1.776a4.135,4.135,0,0,1-1.339-3.042v-3.958a1,1,0,0,1,.7-.959l3.052-.984a1.271,1.271,0,0,1,.786,0l3.052.984a1,1,0,0,1,.7.959v3.958a4.135,4.135,0,0,1-1.339,3.042l-1.94,1.776A1.278,1.278,0,0,1,500.631,276.233Zm0-10.194a.358.358,0,0,0-.109.017l-3.052.984a.082.082,0,0,0-.057.078v3.958a3.207,3.207,0,0,0,1.039,2.36l1.94,1.776a.352.352,0,0,0,.479,0l1.94-1.776a3.207,3.207,0,0,0,1.039-2.36v-3.958a.082.082,0,0,0-.057-.078l-3.052-.984A.353.353,0,0,0,500.631,266.039Z" transform="translate(-485.208 -265.113)" fill="#f87864"/>
      <path id="Path_611" data-name="Path 611" d="M513.509,297.441a.46.46,0,0,1-.327-.135l-1.388-1.388a.463.463,0,1,1,.654-.654l1.06,1.06,1.961-1.961a.463.463,0,1,1,.654.654l-2.288,2.288A.46.46,0,0,1,513.509,297.441Z" transform="translate(-498.537 -290.693)" fill="#f87864"/>
    </g>
  </g>
</svg>
