<svg id="vas_accommodation" xmlns="http://www.w3.org/2000/svg" xmlns:xlink="http://www.w3.org/1999/xlink" width="32" height="32" viewBox="0 0 32 32">
  <defs>
    <clipPath id="clip-path">
      <rect id="Rectangle_20738" data-name="Rectangle 20738" width="32" height="32" fill="#fff"/>
    </clipPath>
  </defs>
  <g id="Mask_Group_119" data-name="Mask Group 119" clip-path="url(#clip-path)">
    <g id="Group_941" data-name="Group 941" transform="translate(0.711 0.711)">
      <g id="Group_939" data-name="Group 939" transform="translate(2.633 3.56)">
        <path id="Path_589" data-name="Path 589" d="M792.12,186.095l-3.97,2.726v1.663l4.137-2.841a.3.3,0,0,1,.335,0l4.137,2.841v-1.663l-3.97-2.726A.591.591,0,0,0,792.12,186.095Z" transform="translate(-779.67 -185.991)" fill="#e2e2ed"/>
        <path id="Path_590" data-name="Path 590" d="M717.432,242.387v1.628l8.48-5.825v-1.628Z" transform="translate(-717.432 -230.498)" fill="#e2e2ed"/>
        <path id="Path_591" data-name="Path 591" d="M868.428,242.386v1.628l-8.48-5.824v-1.628Z" transform="translate(-842.858 -230.498)" fill="#e2e2ed"/>
        <path id="Path_592" data-name="Path 592" d="M717.432,392.175h9.5v1.848h-9.5Z" transform="translate(-717.432 -367.45)" fill="#e2e2ed"/>
        <path id="Path_593" data-name="Path 593" d="M851.475,392.175h9.5v1.848h-9.5Z" transform="translate(-835.401 -367.45)" fill="#e2e2ed"/>
      </g>
      <g id="Group_940" data-name="Group 940" transform="translate(4.214 9.228)">
        <path id="Path_594" data-name="Path 594" d="M799.984,238.448a.4.4,0,0,0,.4-.4v-4h4.282v4a.4.4,0,0,0,.792,0v-4.4a.4.4,0,0,0-.4-.4h-5.075a.4.4,0,0,0-.4.4v4.4a.4.4,0,0,0,.4.4Z" transform="translate(-791.317 -233.259)" fill="#f87864"/>
        <path id="Path_595" data-name="Path 595" d="M789.638,321.081H779.7a.4.4,0,0,0-.4.4v1.552a.4.4,0,0,0,.4.4h1.285v8.029a.4.4,0,0,0,.4.4h6.577a.4.4,0,0,0,.4-.4v-8.029h1.285a.4.4,0,0,0,.4-.4v-1.552A.4.4,0,0,0,789.638,321.081Zm-7.863,2.344h2.5v7.633h-2.5Zm5.785,7.633h-2.5v-7.633h2.5Zm1.681-8.425h-9.148v-.76h9.148v.76Z" transform="translate(-773.464 -310.55)" fill="#f87864"/>
        <path id="Path_596" data-name="Path 596" d="M735.334,321.081h-4.323a.4.4,0,0,0-.4.4v4.988a.4.4,0,0,0,.4.4h4.323a.4.4,0,0,0,.4-.4v-4.988A.4.4,0,0,0,735.334,321.081Zm-3.927.792h1.271v4.2h-1.271Zm3.531,4.2H733.47v-4.2h1.468Z" transform="translate(-730.615 -310.55)" fill="#f87864"/>
        <path id="Path_597" data-name="Path 597" d="M879.545,321.081h-4.323a.4.4,0,0,0-.4.4v4.988a.4.4,0,0,0,.4.4h4.323a.4.4,0,0,0,.4-.4v-4.988A.4.4,0,0,0,879.545,321.081Zm-3.927.792h1.37v4.2h-1.37Zm3.531,4.2h-1.37v-4.2h1.37Z" transform="translate(-857.533 -310.55)" fill="#f87864"/>
      </g>
      <path id="Path_598" data-name="Path 598" d="M714.086,296.756a.457.457,0,0,1-.456-.456V281.594a.456.456,0,0,1,.912,0v14.251H739.2V281.594a.456.456,0,0,1,.912,0V296.3a.456.456,0,0,1-.456.456Z" transform="translate(-711.453 -266.168)" fill="#403996"/>
      <path id="Path_599" data-name="Path 599" d="M779.766,162.62a1.136,1.136,0,0,1-.646-.2l-5.018-3.446-5.018,3.446a1.138,1.138,0,0,1-.646.2h0a1.142,1.142,0,0,1-.646-2.083l6.052-4.156a.455.455,0,0,1,.258-.08h0a.454.454,0,0,1,.258.08l6.052,4.156a1.142,1.142,0,0,1-.646,2.083Zm-11.458-1.331a.23.23,0,0,0-.1.189.221.221,0,0,0,.123.2.246.246,0,0,0,.11.027.222.222,0,0,0,.127-.041l5.276-3.623a.456.456,0,0,1,.516,0l5.276,3.623a.223.223,0,0,0,.127.042.243.243,0,0,0,.11-.028.221.221,0,0,0,.122-.2.229.229,0,0,0-.1-.189L774.1,157.31Z" transform="translate(-758.684 -156.301)" fill="#403996"/>
      <path id="Path_600" data-name="Path 600" d="M706.59,219.223a.456.456,0,0,1-.456-.456v-3.676h-.782a.456.456,0,0,1,0-.912h.782v-4.69l-8.892,6.106a1.127,1.127,0,1,1-1.276-1.858l10.366-7.118a.455.455,0,0,1,.634.118,1.053,1.053,0,0,1,.08.464v6.977h7.7V207.2a1.053,1.053,0,0,1,.08-.464.456.456,0,0,1,.634-.118l10.366,7.118a1.127,1.127,0,1,1-1.276,1.858l-8.892-6.106v4.69h.782a.456.456,0,1,1,0,.912h-.782v3.676a.457.457,0,0,1-.456.456Zm8.154-.912v-3.22h-.856v3.22Zm-1.767,0v-3.22h-.78v3.22Zm-1.692,0v-3.22h-.78v3.22Zm-1.692,0v-3.22h-.78v3.22Zm-1.691,0v-3.22h-.856v3.22Zm-11.419-3.822a.215.215,0,0,0-.093.177.209.209,0,0,0,.115.19.223.223,0,0,0,.1.026.208.208,0,0,0,.119-.039l9.408-6.46v-.522Zm28.581.354a.209.209,0,0,0,.119.039.227.227,0,0,0,.1-.026.207.207,0,0,0,.115-.19.215.215,0,0,0-.093-.177l-9.652-6.628v.522Z" transform="translate(-695.477 -200.515)" fill="#403996"/>
    </g>
  </g>
</svg>
