<svg id="vas_roomessentials" xmlns="http://www.w3.org/2000/svg" xmlns:xlink="http://www.w3.org/1999/xlink" width="32" height="32" viewBox="0 0 32 32">
  <defs>
    <clipPath id="clip-path">
      <rect id="Rectangle_20743" data-name="Rectangle 20743" width="32" height="32" fill="#fff"/>
    </clipPath>
  </defs>
  <g id="Mask_Group_123" data-name="Mask Group 123" clip-path="url(#clip-path)">
    <g id="Group_1168" data-name="Group 1168" transform="translate(3.123 1.211)">
      <rect id="Rectangle_20900" data-name="Rectangle 20900" width="2.507" height="12.128" transform="translate(10.587 17.005)" fill="#ebe7f2"/>
      <path id="Path_897" data-name="Path 897" d="M838.56,131.383l.982,12.23h-1.253l-.718-.714-.773-11.211.708-.531Z" transform="translate(-836.329 -114.277)" fill="#ebe7f2"/>
      <rect id="Rectangle_20901" data-name="Rectangle 20901" width="11.225" height="1.944" transform="translate(12.416 13.276)" fill="#e2e2ed"/>
      <path id="Path_898" data-name="Path 898" d="M906.2,40.678a.464.464,0,0,1-.463-.461l-.009-2.6L902.307,34.3a.464.464,0,0,1-.114-.489l.482-1.346a.434.434,0,0,1,.024-.055.463.463,0,0,1,.624-.2l3.11,1.607a6.074,6.074,0,0,1,.35-.578l-.126-.969a.463.463,0,0,1,.4-.51l3.163-.412-.034-.264a1.356,1.356,0,0,1,1.17-1.521,1.376,1.376,0,0,1,.177-.012,1.359,1.359,0,0,1,1.344,1.182l.034.264,3.163-.412a.452.452,0,0,1,.06,0,.464.464,0,0,1,.459.4l.14,1.076a.466.466,0,0,1-.4.51l-2.976.387,2.936-.01a.465.465,0,0,1,.378.194,5.961,5.961,0,0,1,1.123,3.487l.012,3.545a.463.463,0,0,1-.462.464l-11.142.038Zm.312-3.592a.465.465,0,0,1,.141.331l.008,2.334,10.215-.035-.011-3.083a5.055,5.055,0,0,0-.818-2.756l-8.6.029a5.136,5.136,0,0,0-.385.725l-.013.028a.463.463,0,0,1-.624.2l-3.063-1.582-.2.567Zm1.174-4.072,8.234-1.077-.087-.615L907.6,32.4Zm3.843-2.534a.451.451,0,0,0-.057,0,.431.431,0,0,0-.371.483l.034.264.854-.111-.034-.264A.432.432,0,0,0,911.532,30.479Z" transform="translate(-893.762 -25.007)" fill="#403996"/>
      <path id="Path_899" data-name="Path 899" d="M939.125-1.423a.342.342,0,0,1-.342-.34l0-1.218a4.863,4.863,0,0,1,1.42-3.466A4.862,4.862,0,0,1,943.654-7.9h.019a4.9,4.9,0,0,1,4.894,4.875.342.342,0,0,1-.1.246.339.339,0,0,1-.241.1.342.342,0,0,1-.343-.34,4.218,4.218,0,0,0-4.211-4.2h-.014a4.183,4.183,0,0,0-2.974,1.243,4.183,4.183,0,0,0-1.224,2.982l0,1.22a.342.342,0,0,1-.34.343Z" transform="translate(-925.93 7.895)" fill="#f87864"/>
      <g id="Group_1167" data-name="Group 1167" transform="translate(13.446 19.923)">
        <path id="Path_900" data-name="Path 900" d="M946.8,162.442a3.092,3.092,0,1,1,.01,0Zm-.008-5.672a2.568,2.568,0,1,0,.008,0v-.1Z" transform="translate(-943.697 -156.225)" fill="#f87864"/>
        <path id="Path_901" data-name="Path 901" d="M955.618,170.036a1.881,1.881,0,1,1,.006,0Zm0-3.237a1.346,1.346,0,1,0,1.35,1.342,1.336,1.336,0,0,0-1.35-1.342v-.1Z" transform="translate(-952.509 -165.037)" fill="#f87864"/>
        <path id="Path_902" data-name="Path 902" d="M962.809,176.233a.9.9,0,1,1,.636-.265.9.9,0,0,1-.636.265Zm0-1.25a.352.352,0,1,0,.354.351.35.35,0,0,0-.354-.351v0Z" transform="translate(-959.701 -172.228)" fill="#f87864"/>
      </g>
      <path id="Path_903" data-name="Path 903" d="M1016.828,198.309a.321.321,0,0,1-.32-.319l-.01-2.949a.321.321,0,0,1,.319-.321l1.186,0a.321.321,0,0,1,.321.319l.009,2.949a.32.32,0,0,1-.319.321Z" transform="translate(-994.215 -170.12)" fill="#ebe7f2"/>
      <path id="Path_904" data-name="Path 904" d="M916.8,140.267a1.312,1.312,0,0,1-1.309-1.305l-.034-10.654a1.311,1.311,0,0,1,1.305-1.314l13.04-.042a1.314,1.314,0,0,1,1.314,1.305l.034,10.654a1.311,1.311,0,0,1-1.305,1.314l-13.044.042Zm-.036-12.389a.427.427,0,0,0-.425.428l.034,10.653a.427.427,0,0,0,.426.425l13.041-.042a.427.427,0,0,0,.425-.428l-.034-10.654a.427.427,0,0,0-.426-.425h0Z" transform="translate(-905.441 -110.582)" fill="#403996"/>
      <path id="Path_905" data-name="Path 905" d="M936.871,153.879a4.481,4.481,0,0,1-.014-8.962h.015a4.481,4.481,0,0,1,.014,8.962h-.015Zm-.012-8.175a3.694,3.694,0,0,0,.012,7.387h.012a3.694,3.694,0,0,0-.012-7.387Z" transform="translate(-920.317 -126.367)" fill="#403996"/>
      <path id="Path_906" data-name="Path 906" d="M1017.3,175.815a.922.922,0,1,1,.653-.272.923.923,0,0,1-.653.272Zm0-1.2a.281.281,0,1,0,.282.28.281.281,0,0,0-.282-.28" transform="translate(-994.109 -151.894)" fill="#403996"/>
      <path id="Path_907" data-name="Path 907" d="M1017.245,158.831a.922.922,0,1,1,.653-.272.923.923,0,0,1-.653.272Zm0-1.2a.281.281,0,1,0,.282.28.279.279,0,0,0-.282-.28" transform="translate(-994.062 -136.972)" fill="#403996"/>
      <path id="Path_908" data-name="Path 908" d="M1017.19,141.847a.922.922,0,1,1,.653-.272.923.923,0,0,1-.653.272Zm0-1.2a.281.281,0,1,0,.282.28.281.281,0,0,0-.282-.28" transform="translate(-994.013 -122.05)" fill="#403996"/>
      <path id="Path_909" data-name="Path 909" d="M885.678,149.28a.322.322,0,0,1-.3-.345l.78-9.954a.324.324,0,0,1,.323-.3h.021a.322.322,0,0,1,.3.345l-.78,9.954a.324.324,0,0,1-.321.3Z" transform="translate(-879.012 -120.888)" fill="#ebe7f2"/>
      <path id="Path_910" data-name="Path 910" d="M835.109,126.413a1.174,1.174,0,0,1-1.174-1.07l-.995-10.719a1.179,1.179,0,0,1,1.171-1.288l1.468,0,0-1a1.18,1.18,0,0,1,1.176-1.182l2.1,0a1.182,1.182,0,0,1,1.182,1.176l0,1,1.468,0a1.179,1.179,0,0,1,1.177,1.282l-.945,10.724a1.173,1.173,0,0,1-1.172,1.076l-5.459.013Zm-1-12.189a.291.291,0,0,0-.289.318l.995,10.719a.29.29,0,0,0,.29.264l5.458-.013a.29.29,0,0,0,.289-.266l.945-10.724a.291.291,0,0,0-.29-.317h0Zm2.353-.893,2.686-.006,0-1a.292.292,0,0,0-.292-.291l-2.1,0a.292.292,0,0,0-.29.292h0Z" transform="translate(-832.936 -96.699)" fill="#403996"/>
      <path id="Path_911" data-name="Path 911" d="M866.814,85.233l-.758,0,0,.862a.322.322,0,0,1-.645,0l0-1.983-.937,0,0,1.982a.323.323,0,0,1-.322.323h0a.323.323,0,0,1-.323-.322l-.005-2.305a.323.323,0,0,1,.322-.323l1.582,0a.323.323,0,0,1,.323.322v.138l.755,0Z" transform="translate(-860.076 -72.381)" fill="#f87864"/>
      <path id="Path_912" data-name="Path 912" d="M870.931,203.873a.323.323,0,0,1-.323-.322l-.007-2.371a.322.322,0,0,1,.645,0l.007,2.371a.322.322,0,0,1-.322.323Z" transform="translate(-866.029 -175.516)" fill="#ebe7f2"/>
      <path id="Path_913" data-name="Path 913" d="M870.782,140.573a.323.323,0,0,1-.323-.322l0-1.112a.322.322,0,0,1,.645,0l0,1.112a.323.323,0,0,1-.322.323h0Z" transform="translate(-865.901 -121.006)" fill="#ebe7f2"/>
      <path id="Path_914" data-name="Path 914" d="M855.221,161.573a.323.323,0,0,1-.323-.322v-.216a1.626,1.626,0,0,0-1.624-1.62h-.22a.323.323,0,0,1-.323-.322.323.323,0,0,1,.322-.323h.216a1.626,1.626,0,0,0,1.62-1.628v-.216a.322.322,0,0,1,.645,0v.216a1.626,1.626,0,0,0,1.624,1.62h.22a.322.322,0,1,1,0,.645h-.216a1.625,1.625,0,0,0-1.62,1.628v.216a.323.323,0,0,1-.321.323h0Zm-.787-2.483a.782.782,0,0,0,1.565,0,.782.782,0,1,0-1.565,0Z" transform="translate(-850.328 -136.634)" fill="#403996"/>
      <path id="Path_915" data-name="Path 915" d="M855.221,161.573a.323.323,0,0,1-.322-.322v-.216a1.626,1.626,0,0,0-1.624-1.62h-.22a.322.322,0,1,1,0-.645h.216a1.626,1.626,0,0,0,1.62-1.628v-.216a.322.322,0,1,1,.645,0v.216a1.626,1.626,0,0,0,1.624,1.62h.22a.322.322,0,1,1,0,.645h-.216a1.626,1.626,0,0,0-1.62,1.628v.216a.323.323,0,0,1-.322.323Zm-.787-2.483a.782.782,0,1,0,1.565,0,.782.782,0,1,0-1.565,0Z" transform="translate(-850.328 -136.634)" fill="#403996"/>
    </g>
  </g>
</svg>
